<svg width="48" height="47" viewBox="0 0 48 47" fill="none" xmlns="http://www.w3.org/2000/svg">
<path fill-rule="evenodd" clip-rule="evenodd" d="M35.9077 9.56292L35.7915 9.4725C35.568 7.77525 34.7555 6.00696 33.4871 4.51638C31.4269 2.0945 28.0686 0.25 23.5736 0.25C19.1432 0.25 16.0212 2.27017 14.1793 4.77471C13.3196 5.93301 12.7056 7.2547 12.3748 8.65875C12.3148 8.92168 12.2665 9.18717 12.2302 9.45442L12.0907 9.56163C10.6388 10.6867 9.57322 12.0507 9.82638 13.6149C10.0692 15.1261 11.4358 16.0458 12.7068 16.6077C13.0306 16.7506 13.378 16.8849 13.7492 17.0107C13.5624 18.4667 13.6881 19.9459 14.1177 21.3496C14.5474 22.7533 15.2712 24.0494 16.2409 25.1514C17.2107 26.2535 18.4041 27.1363 19.7418 27.7411C21.0794 28.3458 22.5306 28.6586 23.9985 28.6586C25.4665 28.6586 26.9177 28.3458 28.2553 27.7411C29.593 27.1363 30.7864 26.2535 31.7562 25.1514C32.7259 24.0494 33.4497 22.7533 33.8794 21.3496C34.309 19.9459 34.4347 18.4667 34.2479 17.0107C34.6191 16.8858 34.9665 16.7515 35.2903 16.6077C36.5613 16.0458 37.9266 15.1261 38.1707 13.6149C38.4239 12.0507 37.3583 10.6867 35.9064 9.56163M14.8858 11.45C14.7179 10.967 14.674 10.1907 14.8923 9.23096C15.1067 8.2945 15.551 7.26762 16.2485 6.31696V9.9375C16.2485 10.2801 16.3846 10.6086 16.6269 10.8508C16.8691 11.0931 17.1976 11.2292 17.5402 11.2292C17.8828 11.2292 18.2113 11.0931 18.4536 10.8508C18.6958 10.6086 18.8319 10.2801 18.8319 9.9375V4.00875C19.8949 3.40425 21.1801 2.98187 22.7069 2.86562V7.35417C22.7069 7.69674 22.843 8.02528 23.0852 8.26751C23.3274 8.50975 23.656 8.64583 23.9985 8.64583C24.3411 8.64583 24.6697 8.50975 24.9119 8.26751C25.1541 8.02528 25.2902 7.69674 25.2902 7.35417V2.94571C26.6542 3.1175 27.971 3.55642 29.1652 4.23738V9.9375C29.1652 10.2801 29.3013 10.6086 29.5435 10.8508C29.7858 11.0931 30.1143 11.2292 30.4569 11.2292C30.7995 11.2292 31.128 11.0931 31.3702 10.8508C31.6125 10.6086 31.7485 10.2801 31.7485 9.9375V6.47325C33.1758 8.30225 33.5104 10.2759 33.1087 11.4604C33.0092 11.7535 33.0182 12.0727 33.1343 12.3597C33.2503 12.6467 33.4656 12.8825 33.7409 13.0241C34.0161 13.1658 34.3331 13.2038 34.6341 13.1314C34.9351 13.0589 35.2001 12.8807 35.3807 12.6293C35.6352 12.9845 35.6261 13.1731 35.621 13.2028C35.6042 13.3062 35.4065 13.7324 34.2453 14.2465C33.7416 14.4687 33.1423 14.6689 32.4693 14.8458L32.4383 14.8536C31.7085 15.0422 30.896 15.2023 30.0268 15.3341C28.4145 15.5664 26.7896 15.7001 25.161 15.7345C24.0415 15.7629 22.9214 15.7508 21.8027 15.6983C20.5161 15.64 19.2332 15.5176 17.9587 15.3315C17.1509 15.2144 16.3498 15.0549 15.5588 14.8536L15.5278 14.8458C14.9206 14.6942 14.3267 14.4938 13.7518 14.2465C12.5905 13.7324 12.3929 13.3062 12.3761 13.2028C12.371 13.1731 12.3619 12.9845 12.6164 12.6293C12.7973 12.8819 13.0633 13.0607 13.3654 13.1331C13.6675 13.2055 13.9856 13.1665 14.2614 13.0234C14.5371 12.8803 14.7521 12.6426 14.8668 12.3538C14.9814 12.0651 14.9882 11.7447 14.8858 11.4513M16.277 17.663C16.7067 17.7465 17.1493 17.8227 17.6048 17.8916C18.9843 18.0983 20.4697 18.23 21.981 18.292C23.328 18.3475 24.6768 18.3475 26.0239 18.292C27.5274 18.23 29.0076 18.0983 30.3807 17.8916C30.8405 17.8244 31.287 17.7482 31.7201 17.663C31.812 18.7327 31.6806 19.8098 31.3343 20.826C30.9879 21.8423 30.4342 22.7754 29.7082 23.5664C28.9823 24.3574 28.0999 24.9889 27.117 25.4209C26.1341 25.8529 25.0722 26.076 23.9985 26.076C22.9249 26.076 21.863 25.8529 20.8801 25.4209C19.8972 24.9889 19.0148 24.3574 18.2889 23.5664C17.5629 22.7754 17.0092 21.8423 16.6628 20.826C16.3165 19.8098 16.1851 18.7327 16.277 17.663Z" fill="white"/>
<path fill-rule="evenodd" clip-rule="evenodd" d="M30.4583 29.2996C31.3082 29.4481 32.1737 29.6212 33.0417 29.8188C40.0722 31.4244 47.25 34.6341 47.25 39V46.75H0.75V39C0.75 34.6341 7.92779 31.4244 14.9583 29.8188C15.8149 29.6238 16.6763 29.4507 17.5417 29.2996V35.125H30.4583V29.2996ZM12.375 33.1746C13.2197 32.9162 14.0865 32.6824 14.9583 32.4719V37.7083H33.0417V32.4732C34.3503 32.7855 35.6434 33.1597 36.9167 33.5944V44.1666H39.5V34.6044C39.8754 34.7715 40.2363 34.9433 40.5824 35.1198C42.051 35.8664 43.1399 36.6362 43.8297 37.3725C44.5078 38.0958 44.6667 38.6293 44.6667 39V44.1666H3.33333V39C3.33333 38.6293 3.49221 38.0958 4.17033 37.3725C4.86008 36.6362 5.94896 35.8664 7.41758 35.1198C8.15254 34.7452 8.9495 34.3939 9.79167 34.0671V44.1666H12.375V33.1746Z" fill="white"/>
</svg>
