<svg width="37" height="37" viewBox="0 0 37 37" fill="none" xmlns="http://www.w3.org/2000/svg">
<rect width="37" height="37" rx="18.5" fill="#0D8E02"/>
<path d="M19.8011 12.3636H21.5511V20.6136C21.5511 21.3598 21.4034 21.9981 21.108 22.5284C20.8163 23.0587 20.4053 23.464 19.875 23.7443C19.3447 24.0208 18.7235 24.1591 18.0114 24.1591C17.3561 24.1591 16.767 24.0398 16.2443 23.8011C15.7254 23.5625 15.3144 23.2159 15.0114 22.7614C14.7121 22.303 14.5625 21.7462 14.5625 21.0909H16.3068C16.3068 21.4129 16.3807 21.6913 16.5284 21.9261C16.6799 22.161 16.8864 22.3447 17.1477 22.4773C17.4129 22.6061 17.7159 22.6705 18.0568 22.6705C18.428 22.6705 18.7424 22.5928 19 22.4375C19.2614 22.2784 19.4602 22.0455 19.5966 21.7386C19.733 21.4318 19.8011 21.0568 19.8011 20.6136V12.3636Z" fill="white"/>
</svg>
