<svg width="62" height="43" viewBox="0 0 62 43" fill="none" xmlns="http://www.w3.org/2000/svg">
<path d="M61.6826 14.9225L55.3001 2.17249C55.1239 1.82004 54.8801 1.50572 54.5825 1.2475C54.2849 0.989279 53.9394 0.792208 53.5656 0.667542C53.1919 0.542877 52.7972 0.493058 52.4042 0.520932C52.0112 0.548806 51.6275 0.653825 51.2751 0.829993L44.7201 4.09499L31.2501 0.534993C31.0862 0.491531 30.9139 0.491531 30.7501 0.534993L17.2801 4.09499L10.7251 0.817493C10.3726 0.641325 9.98895 0.536306 9.59593 0.508432C9.20291 0.480559 8.80825 0.530377 8.43448 0.655042C8.06072 0.779708 7.71517 0.976778 7.41757 1.235C7.11998 1.49322 6.87616 1.80754 6.70005 2.15999L0.317554 14.9225C0.141386 15.2749 0.0363667 15.6586 0.00849319 16.0516C-0.0193803 16.4446 0.0304382 16.8393 0.155104 17.2131C0.279769 17.5868 0.47684 17.9324 0.735061 18.23C0.993283 18.5276 1.3076 18.7714 1.66005 18.9475L8.48255 22.36L22.4201 32.315C22.5216 32.3878 22.6362 32.4404 22.7576 32.47L38.7576 36.47C38.924 36.5136 39.0989 36.5135 39.2654 36.4697C39.4318 36.4259 39.5841 36.3399 39.7076 36.22L53.5926 22.335L60.3426 18.96C60.695 18.7839 61.0093 18.5401 61.2675 18.2425C61.5258 17.9449 61.7228 17.5993 61.8475 17.2256C61.9722 16.8518 62.022 16.4571 61.9941 16.0641C61.9662 15.6711 61.8612 15.2874 61.6851 14.935L61.6826 14.9225ZM48.9326 24.16L39.6326 16.71C39.44 16.5555 39.1971 16.4777 38.9507 16.4916C38.7042 16.5054 38.4716 16.6099 38.2976 16.785C33.4251 21.695 27.9626 21.0625 24.4751 18.835C24.3467 18.7526 24.2385 18.6425 24.1584 18.5127C24.0784 18.3828 24.0285 18.2367 24.0126 18.085C23.9955 17.939 24.0116 17.791 24.0596 17.652C24.1077 17.5131 24.1864 17.3868 24.2901 17.2825L35.4051 6.49999H44.3826L51.7826 21.3025L48.9326 24.16ZM2.05255 16.58C1.97261 16.3324 1.99234 16.0633 2.10755 15.83L8.50005 3.05499C8.58208 2.8899 8.70815 2.75069 8.86432 2.65275C9.0205 2.5548 9.20072 2.50194 9.38505 2.49999C9.53971 2.50093 9.69203 2.53773 9.83005 2.60749L15.8301 5.60749L8.55255 20.16L2.55255 17.16C2.43519 17.1009 2.33063 17.0193 2.24484 16.9197C2.15904 16.8202 2.09371 16.7048 2.05255 16.58ZM38.6926 34.3925L23.4276 30.575L10.2776 21.1825L17.8626 5.99999L31.0001 2.53499L38.4301 4.49999H35.0001C34.7396 4.49975 34.4894 4.6011 34.3026 4.78249L22.8776 15.865C22.5596 16.183 22.3172 16.5683 22.1682 16.9926C22.0193 17.4169 21.9676 17.8692 22.0171 18.3162C22.0665 18.7631 22.2158 19.1932 22.4539 19.5747C22.692 19.9562 23.0128 20.2792 23.3926 20.52C28.3626 23.6975 34.4251 23.02 39.0576 18.8175L47.5001 25.5825L38.6926 34.3925ZM59.9426 16.58C59.9014 16.7048 59.8361 16.8202 59.7503 16.9197C59.6645 17.0193 59.5599 17.1009 59.4426 17.16L53.4426 20.16L46.1701 5.60749L52.1701 2.60749C52.4061 2.49256 52.6779 2.47506 52.9267 2.55879C53.1756 2.64252 53.3815 2.82074 53.5001 3.05499L59.8826 15.8175C60.0045 16.053 60.0278 16.3273 59.9476 16.58H59.9426ZM30.9851 41.75C30.9296 41.9649 30.8041 42.1553 30.6285 42.2911C30.4529 42.4269 30.2371 42.5004 30.0151 42.5C29.9308 42.5006 29.8468 42.4905 29.7651 42.47L19.3451 39.8625C19.223 39.8326 19.1076 39.7801 19.0051 39.7075L12.4201 35C12.2042 34.8458 12.0585 34.6123 12.0149 34.3506C11.9713 34.089 12.0334 33.8208 12.1876 33.605C12.3417 33.3892 12.5753 33.2434 12.8369 33.1998C13.0985 33.1562 13.3667 33.2183 13.5826 33.3725L20.0126 37.965L30.2626 40.5275C30.3906 40.5598 30.5109 40.6172 30.6166 40.6963C30.7223 40.7754 30.8113 40.8746 30.8785 40.9882C30.9456 41.1019 30.9896 41.2277 31.0079 41.3585C31.0262 41.4892 31.0185 41.6223 30.9851 41.75Z" fill="white"/>
</svg>
