<svg width="25" height="25" viewBox="0 0 25 25" fill="none" xmlns="http://www.w3.org/2000/svg">
<path d="M12.5 22.5C18.0228 22.5 22.5 18.0228 22.5 12.5C22.5 6.97715 18.0228 2.5 12.5 2.5C6.97715 2.5 2.5 6.97715 2.5 12.5C2.5 18.0228 6.97715 22.5 12.5 22.5Z" stroke="white" stroke-width="2" stroke-linecap="round" stroke-linejoin="round"/>
<path d="M9.58984 9.49959C9.82495 8.83126 10.289 8.2677 10.8998 7.90873C11.5106 7.54975 12.2287 7.41853 12.927 7.5383C13.6253 7.65808 14.2587 8.02112 14.7149 8.56312C15.1712 9.10512 15.4209 9.79112 15.4198 10.4996C15.4198 12.4996 12.4198 13.4996 12.4198 13.4996" stroke="white" stroke-width="2" stroke-linecap="round" stroke-linejoin="round"/>
<path d="M12.5 17.5H12.51" stroke="white" stroke-width="2" stroke-linecap="round" stroke-linejoin="round"/>
</svg>
