<svg width="962" height="429" viewBox="0 0 962 429" fill="none" xmlns="http://www.w3.org/2000/svg">
<rect y="0.914062" width="962" height="428" rx="7" fill="#0B0C0C"/>
<path d="M56.5284 35.3203V34.1868H63.2827V35.3203H60.5597V42.9141H59.2472V35.3203H56.5284ZM67.0808 43.0462C66.4672 43.0462 65.9317 42.9055 65.4743 42.6243C65.0169 42.343 64.6618 41.9496 64.4089 41.4439C64.1561 40.9382 64.0297 40.3473 64.0297 39.6712C64.0297 38.9922 64.1561 38.3984 64.4089 37.8899C64.6618 37.3814 65.0169 36.9865 65.4743 36.7053C65.9317 36.424 66.4672 36.2834 67.0808 36.2834C67.6945 36.2834 68.23 36.424 68.6874 36.7053C69.1447 36.9865 69.4999 37.3814 69.7527 37.8899C70.0055 38.3984 70.132 38.9922 70.132 39.6712C70.132 40.3473 70.0055 40.9382 69.7527 41.4439C69.4999 41.9496 69.1447 42.343 68.6874 42.6243C68.23 42.9055 67.6945 43.0462 67.0808 43.0462ZM67.0851 41.9766C67.4828 41.9766 67.8124 41.8714 68.0737 41.6612C68.3351 41.451 68.5283 41.1712 68.6533 40.8217C68.7811 40.4723 68.845 40.0874 68.845 39.6669C68.845 39.2493 68.7811 38.8658 68.6533 38.5163C68.5283 38.1641 68.3351 37.8814 68.0737 37.6683C67.8124 37.4553 67.4828 37.3487 67.0851 37.3487C66.6845 37.3487 66.3521 37.4553 66.0879 37.6683C65.8266 37.8814 65.632 38.1641 65.5041 38.5163C65.3791 38.8658 65.3166 39.2493 65.3166 39.6669C65.3166 40.0874 65.3791 40.4723 65.5041 40.8217C65.632 41.1712 65.8266 41.451 66.0879 41.6612C66.3521 41.8714 66.6845 41.9766 67.0851 41.9766ZM75.2096 36.3686V37.3913H71.6343V36.3686H75.2096ZM72.5931 34.8004H73.8673V40.9922C73.8673 41.2393 73.9042 41.4254 73.9781 41.5504C74.0519 41.6726 74.1471 41.7564 74.2636 41.8018C74.3829 41.8445 74.5121 41.8658 74.6513 41.8658C74.7536 41.8658 74.8431 41.8587 74.9198 41.8445C74.9965 41.8303 75.0562 41.8189 75.0988 41.8104L75.3289 42.8629C75.255 42.8913 75.1499 42.9197 75.0136 42.9482C74.8772 42.9794 74.7067 42.9964 74.5022 42.9993C74.167 43.005 73.8545 42.9453 73.5647 42.8203C73.2749 42.6953 73.0406 42.5021 72.8616 42.2408C72.6826 41.9794 72.5931 41.6513 72.5931 41.2564V34.8004ZM79.1239 43.0589C78.7091 43.0589 78.3341 42.9822 77.9989 42.8288C77.6636 42.6726 77.398 42.4467 77.202 42.1513C77.0088 41.8558 76.9122 41.4936 76.9122 41.0646C76.9122 40.6953 76.9832 40.3913 77.1253 40.1527C77.2673 39.9141 77.4591 39.7251 77.7006 39.5859C77.942 39.4467 78.2119 39.3416 78.5102 39.2706C78.8085 39.1996 79.1125 39.1456 79.4222 39.1087C79.8142 39.0632 80.1324 39.0263 80.3767 38.9979C80.621 38.9666 80.7986 38.9169 80.9094 38.8487C81.0202 38.7805 81.0756 38.6697 81.0756 38.5163V38.4865C81.0756 38.1143 80.9705 37.826 80.7602 37.6214C80.5528 37.4169 80.2432 37.3146 79.8312 37.3146C79.4023 37.3146 79.0642 37.4098 78.817 37.6001C78.5727 37.7876 78.4037 37.9964 78.3099 38.2266L77.1125 37.9538C77.2545 37.5561 77.4619 37.2351 77.7347 36.9908C78.0102 36.7436 78.327 36.5646 78.6849 36.4538C79.0429 36.3402 79.4193 36.2834 79.8142 36.2834C80.0756 36.2834 80.3526 36.3146 80.6452 36.3771C80.9406 36.4368 81.2162 36.5476 81.4719 36.7095C81.7304 36.8714 81.942 37.103 82.1068 37.4041C82.2716 37.7024 82.354 38.0902 82.354 38.5675V42.9141H81.1097V42.0192H81.0585C80.9761 42.1839 80.8526 42.3459 80.6878 42.505C80.523 42.6641 80.3114 42.7962 80.0528 42.9013C79.7943 43.0064 79.4847 43.0589 79.1239 43.0589ZM79.4009 42.0362C79.7531 42.0362 80.0543 41.9666 80.3043 41.8274C80.5571 41.6882 80.7489 41.5064 80.8795 41.282C81.0131 41.0547 81.0798 40.8118 81.0798 40.5533V39.7095C81.0344 39.755 80.9463 39.7976 80.8156 39.8374C80.6878 39.8743 80.5415 39.907 80.3767 39.9354C80.2119 39.9609 80.0514 39.9851 79.8952 40.0078C79.7389 40.0277 79.6082 40.0447 79.5031 40.0589C79.256 40.0902 79.0301 40.1428 78.8256 40.2166C78.6239 40.2905 78.4619 40.397 78.3398 40.5362C78.2205 40.6726 78.1608 40.8544 78.1608 41.0817C78.1608 41.397 78.2773 41.6357 78.5102 41.7976C78.7432 41.9567 79.0401 42.0362 79.4009 42.0362ZM85.9252 34.1868V42.9141H84.6511V34.1868H85.9252ZM96.8773 36.4794C96.8319 36.076 96.6444 35.7635 96.3148 35.5419C95.9853 35.3175 95.5705 35.2053 95.0705 35.2053C94.7126 35.2053 94.4029 35.2621 94.1415 35.3757C93.8802 35.4865 93.6771 35.6399 93.5322 35.8359C93.3901 36.0291 93.3191 36.2493 93.3191 36.4964C93.3191 36.7038 93.3674 36.8828 93.464 37.0334C93.5634 37.1839 93.6927 37.3104 93.8518 37.4126C94.0137 37.5121 94.187 37.5959 94.3717 37.6641C94.5563 37.7294 94.7339 37.7834 94.9043 37.826L95.7566 38.0476C96.035 38.1158 96.3205 38.2081 96.6131 38.3246C96.9058 38.4411 97.1771 38.5945 97.4271 38.7848C97.6771 38.9751 97.8788 39.2109 98.0322 39.4922C98.1884 39.7734 98.2665 40.1101 98.2665 40.5021C98.2665 40.9964 98.1387 41.4354 97.883 41.8189C97.6302 42.2024 97.2623 42.505 96.7793 42.7266C96.2992 42.9482 95.7183 43.0589 95.0364 43.0589C94.383 43.0589 93.8177 42.9553 93.3404 42.7479C92.8631 42.5405 92.4896 42.2464 92.2197 41.8658C91.9498 41.4822 91.8006 41.0277 91.7722 40.5021H93.0933C93.1188 40.8175 93.2211 41.0803 93.4001 41.2905C93.5819 41.4979 93.8134 41.6527 94.0947 41.755C94.3788 41.8544 94.6898 41.9041 95.0279 41.9041C95.4001 41.9041 95.731 41.8459 96.0208 41.7294C96.3134 41.6101 96.5435 41.4453 96.7111 41.2351C96.8788 41.022 96.9626 40.7734 96.9626 40.4893C96.9626 40.2308 96.8887 40.0192 96.741 39.8544C96.5961 39.6896 96.3986 39.5533 96.1486 39.4453C95.9015 39.3374 95.6217 39.2422 95.3092 39.1598L94.2779 38.8786C93.579 38.6882 93.0251 38.4084 92.616 38.0391C92.2097 37.6697 92.0066 37.1811 92.0066 36.5732C92.0066 36.0703 92.143 35.6314 92.4157 35.2564C92.6884 34.8814 93.0577 34.5902 93.5236 34.3828C93.9896 34.1726 94.5151 34.0675 95.1004 34.0675C95.6913 34.0675 96.2126 34.1712 96.6643 34.3786C97.1188 34.5859 97.4768 34.8714 97.7381 35.2351C97.9995 35.5959 98.1359 36.0107 98.1472 36.4794H96.8773ZM102.243 43.0589C101.828 43.0589 101.453 42.9822 101.118 42.8288C100.782 42.6726 100.517 42.4467 100.321 42.1513C100.128 41.8558 100.031 41.4936 100.031 41.0646C100.031 40.6953 100.102 40.3913 100.244 40.1527C100.386 39.9141 100.578 39.7251 100.819 39.5859C101.061 39.4467 101.331 39.3416 101.629 39.2706C101.927 39.1996 102.231 39.1456 102.541 39.1087C102.933 39.0632 103.251 39.0263 103.495 38.9979C103.74 38.9666 103.917 38.9169 104.028 38.8487C104.139 38.7805 104.194 38.6697 104.194 38.5163V38.4865C104.194 38.1143 104.089 37.826 103.879 37.6214C103.672 37.4169 103.362 37.3146 102.95 37.3146C102.521 37.3146 102.183 37.4098 101.936 37.6001C101.691 37.7876 101.522 37.9964 101.429 38.2266L100.231 37.9538C100.373 37.5561 100.581 37.2351 100.853 36.9908C101.129 36.7436 101.446 36.5646 101.804 36.4538C102.162 36.3402 102.538 36.2834 102.933 36.2834C103.194 36.2834 103.471 36.3146 103.764 36.3771C104.059 36.4368 104.335 36.5476 104.591 36.7095C104.849 36.8714 105.061 37.103 105.226 37.4041C105.39 37.7024 105.473 38.0902 105.473 38.5675V42.9141H104.228V42.0192H104.177C104.095 42.1839 103.971 42.3459 103.807 42.505C103.642 42.6641 103.43 42.7962 103.172 42.9013C102.913 43.0064 102.603 43.0589 102.243 43.0589ZM102.52 42.0362C102.872 42.0362 103.173 41.9666 103.423 41.8274C103.676 41.6882 103.868 41.5064 103.998 41.282C104.132 41.0547 104.199 40.8118 104.199 40.5533V39.7095C104.153 39.755 104.065 39.7976 103.934 39.8374C103.807 39.8743 103.66 39.907 103.495 39.9354C103.331 39.9609 103.17 39.9851 103.014 40.0078C102.858 40.0277 102.727 40.0447 102.622 40.0589C102.375 40.0902 102.149 40.1428 101.944 40.2166C101.743 40.2905 101.581 40.397 101.459 40.5362C101.339 40.6726 101.28 40.8544 101.28 41.0817C101.28 41.397 101.396 41.6357 101.629 41.7976C101.862 41.9567 102.159 42.0362 102.52 42.0362ZM109.044 34.1868V42.9141H107.77V34.1868H109.044ZM114.179 43.0462C113.534 43.0462 112.979 42.9084 112.513 42.6328C112.05 42.3544 111.692 41.9638 111.439 41.4609C111.189 40.9553 111.064 40.3629 111.064 39.6839C111.064 39.0135 111.189 38.4226 111.439 37.9112C111.692 37.3999 112.044 37.0007 112.496 36.7138C112.95 36.4268 113.482 36.2834 114.09 36.2834C114.459 36.2834 114.817 36.3445 115.163 36.4666C115.51 36.5888 115.821 36.7805 116.097 37.0419C116.372 37.3033 116.59 37.6428 116.749 38.0604C116.908 38.4751 116.987 38.9794 116.987 39.5732V40.0249H111.784V39.0703H115.739C115.739 38.7351 115.671 38.4382 115.534 38.1797C115.398 37.9183 115.206 37.7124 114.959 37.5618C114.715 37.4112 114.428 37.3359 114.098 37.3359C113.74 37.3359 113.428 37.424 113.161 37.6001C112.896 37.7734 112.692 38.0007 112.547 38.282C112.405 38.5604 112.334 38.8629 112.334 39.1896V39.9354C112.334 40.3729 112.411 40.745 112.564 41.0518C112.72 41.3587 112.938 41.593 113.216 41.755C113.494 41.9141 113.82 41.9936 114.192 41.9936C114.433 41.9936 114.654 41.9595 114.852 41.8913C115.051 41.8203 115.223 41.7152 115.368 41.576C115.513 41.4368 115.624 41.2649 115.7 41.0604L116.906 41.2777C116.81 41.6328 116.637 41.9439 116.387 42.2109C116.139 42.4751 115.828 42.6811 115.453 42.8288C115.081 42.9737 114.656 43.0462 114.179 43.0462ZM123.906 37.9666L122.751 38.1712C122.703 38.0234 122.626 37.8828 122.521 37.7493C122.419 37.6158 122.279 37.5064 122.103 37.4212C121.927 37.3359 121.707 37.2933 121.443 37.2933C121.082 37.2933 120.781 37.3743 120.539 37.5362C120.298 37.6953 120.177 37.9013 120.177 38.1541C120.177 38.3729 120.258 38.549 120.42 38.6825C120.582 38.8161 120.843 38.9254 121.204 39.0107L122.244 39.2493C122.846 39.3885 123.295 39.603 123.591 39.8928C123.886 40.1825 124.034 40.5589 124.034 41.022C124.034 41.4141 123.92 41.7635 123.693 42.0703C123.468 42.3743 123.154 42.6129 122.751 42.7862C122.35 42.9595 121.886 43.0462 121.358 43.0462C120.625 43.0462 120.027 42.8899 119.564 42.5774C119.1 42.2621 118.816 41.8146 118.711 41.2351L119.943 41.0476C120.02 41.3686 120.177 41.6115 120.416 41.7763C120.654 41.9382 120.966 42.0192 121.349 42.0192C121.767 42.0192 122.1 41.9325 122.35 41.7592C122.6 41.5831 122.725 41.3686 122.725 41.1158C122.725 40.9112 122.649 40.7393 122.495 40.6001C122.345 40.4609 122.113 40.3558 121.801 40.2848L120.693 40.0419C120.082 39.9027 119.63 39.6811 119.338 39.3771C119.048 39.0732 118.903 38.6882 118.903 38.2223C118.903 37.8359 119.011 37.4979 119.227 37.2081C119.443 36.9183 119.741 36.6925 120.122 36.5305C120.502 36.3658 120.939 36.2834 121.43 36.2834C122.137 36.2834 122.694 36.4368 123.1 36.7436C123.507 37.0476 123.775 37.4553 123.906 37.9666Z" fill="white"/>
<path d="M61.9801 71.7322V53.5504H63.1449V71.7322H61.9801ZM65.3395 59.3672C65.2732 58.7469 64.9938 58.264 64.5014 57.9183C64.0137 57.5727 63.3793 57.3999 62.598 57.3999C62.0488 57.3999 61.5777 57.4827 61.1847 57.6484C60.7917 57.8142 60.491 58.0391 60.2827 58.3232C60.0743 58.6072 59.9678 58.9316 59.9631 59.2962C59.9631 59.5992 60.0317 59.862 60.169 60.0845C60.3111 60.3071 60.5028 60.4964 60.7443 60.6527C60.9858 60.8042 61.2533 60.9321 61.5469 61.0362C61.8404 61.1404 62.1364 61.228 62.4347 61.299L63.7983 61.6399C64.3475 61.7678 64.8755 61.9406 65.3821 62.1584C65.8935 62.3762 66.3504 62.6508 66.7528 62.9822C67.16 63.3137 67.482 63.7138 67.7188 64.1825C67.9555 64.6513 68.0739 65.2005 68.0739 65.8303C68.0739 66.6825 67.8561 67.433 67.4205 68.0817C66.9848 68.7256 66.3551 69.2299 65.5312 69.5945C64.7121 69.9543 63.7202 70.1342 62.5554 70.1342C61.4238 70.1342 60.4413 69.959 59.608 69.6087C58.7794 69.2583 58.1307 68.7469 57.6619 68.0746C57.1979 67.4022 56.947 66.5831 56.9091 65.6172H59.5014C59.5393 66.1238 59.6955 66.5452 59.9702 66.8814C60.2448 67.2176 60.6023 67.4685 61.0426 67.6342C61.4877 67.8 61.9848 67.8828 62.5341 67.8828C63.107 67.8828 63.6089 67.7976 64.0398 67.6271C64.4754 67.4519 64.8163 67.2105 65.0625 66.9027C65.3087 66.5902 65.4342 66.2256 65.4389 65.8089C65.4342 65.4302 65.3229 65.1177 65.1051 64.8714C64.8873 64.6205 64.5819 64.4122 64.1889 64.2464C63.8007 64.076 63.3461 63.9245 62.8253 63.7919L61.1705 63.3658C59.9725 63.058 59.0256 62.5916 58.3295 61.9666C57.6383 61.3369 57.2926 60.5012 57.2926 59.4595C57.2926 58.6025 57.5246 57.852 57.9886 57.2081C58.4574 56.5642 59.0942 56.0646 59.8991 55.7095C60.7041 55.3497 61.6155 55.1697 62.6335 55.1697C63.6657 55.1697 64.5701 55.3497 65.3466 55.7095C66.1278 56.0646 66.741 56.5594 67.1861 57.1939C67.6312 57.8236 67.8608 58.5481 67.875 59.3672H65.3395ZM77.1971 55.3686V69.9141H74.5621V57.9325H74.4769L71.0749 60.1058V57.6911L74.69 55.3686H77.1971ZM87.1104 70.1129C86.0877 70.1129 85.1786 69.9377 84.3832 69.5874C83.5924 69.237 82.9674 68.7493 82.5082 68.1243C82.0489 67.4993 81.805 66.7772 81.7766 65.9581H84.4471C84.4708 66.3511 84.601 66.6944 84.8377 66.9879C85.0745 67.2768 85.3893 67.5017 85.7823 67.6626C86.1753 67.8236 86.6156 67.9041 87.1033 67.9041C87.6242 67.9041 88.0858 67.8142 88.4883 67.6342C88.8907 67.4496 89.2056 67.1939 89.4329 66.8672C89.6602 66.5405 89.7714 66.1641 89.7667 65.7379C89.7714 65.2976 89.6578 64.9093 89.4258 64.5732C89.1938 64.237 88.8576 63.9742 88.4173 63.7848C87.9817 63.5954 87.4561 63.5007 86.8406 63.5007H85.555V61.4695H86.8406C87.3472 61.4695 87.7899 61.3819 88.1687 61.2067C88.5522 61.0315 88.8529 60.7853 89.0707 60.468C89.2885 60.1461 89.395 59.7744 89.3903 59.353C89.395 58.9411 89.3027 58.5836 89.1133 58.2805C88.9286 57.9728 88.6658 57.7337 88.3249 57.5632C87.9888 57.3928 87.5934 57.3075 87.1388 57.3075C86.6938 57.3075 86.2818 57.388 85.9031 57.549C85.5243 57.71 85.2189 57.9396 84.9869 58.2379C84.7549 58.5315 84.6317 58.8819 84.6175 59.2891H82.082C82.101 58.4747 82.3353 57.7597 82.7852 57.1442C83.2397 56.5239 83.8458 56.041 84.6033 55.6953C85.3609 55.3449 86.2108 55.1697 87.1531 55.1697C88.1237 55.1697 88.9665 55.352 89.6815 55.7166C90.4012 56.0765 90.9575 56.5618 91.3505 57.1726C91.7435 57.7834 91.94 58.4581 91.94 59.1967C91.9447 60.0159 91.7032 60.7024 91.2156 61.2564C90.7326 61.8104 90.0981 62.1726 89.3121 62.343V62.4567C90.3349 62.5987 91.1185 62.9775 91.663 63.593C92.2122 64.2038 92.4845 64.9638 92.4798 65.8729C92.4798 66.6873 92.2478 67.4164 91.7837 68.0604C91.3245 68.6996 90.69 69.2015 89.8803 69.5661C89.0754 69.9306 88.1521 70.1129 87.1104 70.1129ZM98.5348 67.9254L98.4425 68.7067C98.3762 69.3033 98.2578 69.9093 98.0874 70.5249C97.9216 71.1451 97.7464 71.7157 97.5618 72.2365C97.3771 72.7573 97.228 73.1669 97.1143 73.4652H95.3814C95.4477 73.1764 95.5376 72.7834 95.6513 72.2862C95.7696 71.7891 95.8833 71.2304 95.9922 70.6101C96.1011 69.9898 96.1745 69.3601 96.2124 68.7209L96.2621 67.9254H98.5348ZM107.147 70.1129C106.451 70.1082 105.771 69.9875 105.108 69.7507C104.445 69.5092 103.849 69.1186 103.319 68.5788C102.788 68.0343 102.367 67.3123 102.054 66.4126C101.742 65.5083 101.588 64.3885 101.593 63.0533C101.593 61.808 101.725 60.6977 101.99 59.7223C102.256 58.7469 102.637 57.9231 103.134 57.2507C103.631 56.5736 104.23 56.0575 104.931 55.7024C105.636 55.3473 106.425 55.1697 107.296 55.1697C108.21 55.1697 109.019 55.3497 109.725 55.7095C110.435 56.0694 111.008 56.5618 111.444 57.1868C111.879 57.8071 112.149 58.5078 112.253 59.2891H109.661C109.528 58.7304 109.256 58.2853 108.844 57.9538C108.437 57.6177 107.921 57.4496 107.296 57.4496C106.287 57.4496 105.511 57.8875 104.966 58.7635C104.426 59.6394 104.154 60.8421 104.15 62.3714H104.249C104.481 61.9548 104.782 61.5973 105.151 61.299C105.52 61.0007 105.937 60.7711 106.401 60.6101C106.87 60.4444 107.364 60.3615 107.885 60.3615C108.738 60.3615 109.502 60.5651 110.179 60.9723C110.861 61.3795 111.401 61.9406 111.799 62.6555C112.196 63.3658 112.393 64.1802 112.388 65.0987C112.393 66.0552 112.175 66.9145 111.735 67.6768C111.294 68.4344 110.681 69.031 109.895 69.4666C109.109 69.9022 108.193 70.1177 107.147 70.1129ZM107.132 67.9822C107.649 67.9822 108.11 67.8568 108.517 67.6058C108.925 67.3549 109.247 67.0163 109.483 66.5902C109.72 66.1641 109.836 65.6858 109.831 65.1555C109.836 64.6347 109.722 64.1636 109.49 63.7422C109.263 63.3208 108.948 62.987 108.546 62.7408C108.143 62.4946 107.684 62.3714 107.168 62.3714C106.784 62.3714 106.427 62.4448 106.096 62.5916C105.764 62.7384 105.475 62.942 105.229 63.2024C104.983 63.4581 104.789 63.7564 104.647 64.0973C104.509 64.4335 104.438 64.7933 104.434 65.1768C104.438 65.6835 104.557 66.1499 104.789 66.576C105.021 67.0021 105.34 67.343 105.748 67.5987C106.155 67.8544 106.616 67.9822 107.132 67.9822ZM121.165 70.1911C119.996 70.1911 118.992 69.8951 118.154 69.3033C117.32 68.7067 116.679 67.8473 116.229 66.7251C115.784 65.5982 115.561 64.2417 115.561 62.6555C115.566 61.0694 115.791 59.7199 116.236 58.6072C116.686 57.4898 117.328 56.6375 118.161 56.0504C118.999 55.4633 120 55.1697 121.165 55.1697C122.33 55.1697 123.331 55.4633 124.169 56.0504C125.007 56.6375 125.649 57.4898 126.094 58.6072C126.544 59.7247 126.769 61.0741 126.769 62.6555C126.769 64.2464 126.544 65.6054 126.094 66.7322C125.649 67.8544 125.007 68.7114 124.169 69.3033C123.336 69.8951 122.335 70.1911 121.165 70.1911ZM121.165 67.968C122.074 67.968 122.792 67.5206 123.317 66.6257C123.847 65.7261 124.113 64.4027 124.113 62.6555C124.113 61.5002 123.992 60.5296 123.75 59.7436C123.509 58.9576 123.168 58.3658 122.728 57.968C122.287 57.5656 121.766 57.3643 121.165 57.3643C120.261 57.3643 119.546 57.8142 119.02 58.7138C118.495 59.6087 118.23 60.9226 118.225 62.6555C118.22 63.8156 118.336 64.791 118.573 65.5817C118.814 66.3724 119.155 66.969 119.596 67.3714C120.036 67.7692 120.559 67.968 121.165 67.968ZM135.505 70.1911C134.335 70.1911 133.332 69.8951 132.494 69.3033C131.66 68.7067 131.019 67.8473 130.569 66.7251C130.124 65.5982 129.901 64.2417 129.901 62.6555C129.906 61.0694 130.131 59.7199 130.576 58.6072C131.026 57.4898 131.667 56.6375 132.501 56.0504C133.339 55.4633 134.34 55.1697 135.505 55.1697C136.67 55.1697 137.671 55.4633 138.509 56.0504C139.347 56.6375 139.989 57.4898 140.434 58.6072C140.884 59.7247 141.109 61.0741 141.109 62.6555C141.109 64.2464 140.884 65.6054 140.434 66.7322C139.989 67.8544 139.347 68.7114 138.509 69.3033C137.676 69.8951 136.674 70.1911 135.505 70.1911ZM135.505 67.968C136.414 67.968 137.131 67.5206 137.657 66.6257C138.187 65.7261 138.452 64.4027 138.452 62.6555C138.452 61.5002 138.332 60.5296 138.09 59.7436C137.849 58.9576 137.508 58.3658 137.067 57.968C136.627 57.5656 136.106 57.3643 135.505 57.3643C134.601 57.3643 133.886 57.8142 133.36 58.7138C132.835 59.6087 132.569 60.9226 132.565 62.6555C132.56 63.8156 132.676 64.791 132.913 65.5817C133.154 66.3724 133.495 66.969 133.935 67.3714C134.376 67.7692 134.899 67.968 135.505 67.968ZM145.514 70.0703C145.083 70.0703 144.714 69.9188 144.406 69.6158C144.098 69.3127 143.947 68.9434 143.952 68.5078C143.947 68.0817 144.098 67.7171 144.406 67.4141C144.714 67.111 145.083 66.9595 145.514 66.9595C145.931 66.9595 146.293 67.111 146.601 67.4141C146.913 67.7171 147.072 68.0817 147.077 68.5078C147.072 68.7966 146.996 69.0594 146.849 69.2962C146.707 69.5329 146.518 69.7223 146.281 69.8643C146.049 70.0017 145.794 70.0703 145.514 70.0703ZM153.537 70.0433C152.922 70.0433 152.371 69.9279 151.885 69.6971C151.398 69.4632 151.012 69.1431 150.726 68.7369C150.443 68.3306 150.292 67.8659 150.273 67.3427H151.935C151.966 67.7305 152.134 68.0475 152.439 68.2937C152.743 68.5368 153.109 68.6584 153.537 68.6584C153.873 68.6584 154.171 68.5814 154.433 68.4276C154.694 68.2737 154.901 68.0598 155.051 67.7859C155.202 67.512 155.276 67.1996 155.273 66.8487C155.276 66.4917 155.201 66.1747 155.047 65.8977C154.893 65.6207 154.682 65.4038 154.414 65.2468C154.147 65.0868 153.839 65.0067 153.491 65.0067C153.208 65.0037 152.929 65.056 152.656 65.1637C152.382 65.2714 152.165 65.413 152.005 65.5884L150.458 65.3345L150.952 60.4595H156.436V61.8906H152.369L152.097 64.3974H152.152C152.328 64.1912 152.576 64.0204 152.896 63.8849C153.216 63.7464 153.567 63.6772 153.948 63.6772C154.521 63.6772 155.031 63.8126 155.481 64.0835C155.93 64.3512 156.284 64.7205 156.543 65.1914C156.801 65.6623 156.93 66.2009 156.93 66.8072C156.93 67.4319 156.786 67.989 156.496 68.4783C156.21 68.9646 155.812 69.3478 155.301 69.6278C154.793 69.9048 154.205 70.0433 153.537 70.0433ZM162.622 70.0941C161.861 70.0941 161.209 69.9018 160.664 69.517C160.123 69.1293 159.706 68.5707 159.413 67.8413C159.124 67.1088 158.979 66.227 158.979 65.196C158.982 64.165 159.128 63.2879 159.418 62.5646C159.71 61.8383 160.127 61.2843 160.669 60.9027C161.214 60.5211 161.864 60.3303 162.622 60.3303C163.379 60.3303 164.03 60.5211 164.574 60.9027C165.119 61.2843 165.536 61.8383 165.825 62.5646C166.118 63.291 166.264 64.1681 166.264 65.196C166.264 66.2301 166.118 67.1134 165.825 67.8459C165.536 68.5753 165.119 69.1323 164.574 69.517C164.033 69.9018 163.382 70.0941 162.622 70.0941ZM162.622 68.6491C163.213 68.6491 163.679 68.3583 164.02 67.7766C164.365 67.1919 164.537 66.3317 164.537 65.196C164.537 64.4451 164.459 63.8142 164.302 63.3033C164.145 62.7924 163.923 62.4077 163.637 62.1491C163.351 61.8875 163.012 61.7567 162.622 61.7567C162.034 61.7567 161.569 62.0491 161.227 62.6339C160.886 63.2156 160.713 64.0696 160.71 65.196C160.707 65.95 160.783 66.584 160.937 67.098C161.094 67.612 161.315 67.9998 161.601 68.2614C161.888 68.5199 162.228 68.6491 162.622 68.6491Z" fill="white"/>
<g clip-path="url(#clip0_85_1304)">
<rect x="129.5" y="132.914" width="745" height="1" fill="#454545"/>
<rect x="129.5" y="186.914" width="745" height="1" fill="#454545"/>
<rect x="129.5" y="240.914" width="745" height="1" fill="#454545"/>
<rect x="129.5" y="294.914" width="745" height="1" fill="#454545"/>
</g>
<path d="M867 151.414C867 155.832 870.582 159.414 875 159.414C879.418 159.414 883 155.832 883 151.414C883 146.996 879.418 143.414 875 143.414C870.582 143.414 867 146.996 867 151.414ZM73.2882 309.886L875.288 152.886L874.712 149.942L72.7118 306.942L73.2882 309.886Z" fill="#0D8E02"/>
<path d="M867 235.914C867 240.332 870.582 243.914 875 243.914C879.418 243.914 883 240.332 883 235.914C883 231.496 879.418 227.914 875 227.914C870.582 227.914 867 231.496 867 235.914ZM73.1415 313.407L875.141 237.407L874.858 234.421L72.8585 310.421L73.1415 313.407Z" fill="#EEA837"/>
<path d="M892.784 156.369V141.823H893.716V156.369H892.784ZM895.472 146.477C895.419 145.98 895.195 145.594 894.801 145.317C894.411 145.041 893.903 144.903 893.278 144.903C892.839 144.903 892.462 144.969 892.148 145.102C891.833 145.234 891.593 145.414 891.426 145.641C891.259 145.869 891.174 146.128 891.17 146.42C891.17 146.662 891.225 146.872 891.335 147.05C891.449 147.228 891.602 147.38 891.795 147.505C891.989 147.626 892.203 147.728 892.438 147.812C892.672 147.895 892.909 147.965 893.148 148.022L894.239 148.295C894.678 148.397 895.1 148.535 895.506 148.71C895.915 148.884 896.28 149.103 896.602 149.369C896.928 149.634 897.186 149.954 897.375 150.329C897.564 150.704 897.659 151.143 897.659 151.647C897.659 152.329 897.485 152.929 897.136 153.448C896.788 153.963 896.284 154.367 895.625 154.658C894.97 154.946 894.176 155.09 893.244 155.09C892.339 155.09 891.553 154.95 890.886 154.67C890.223 154.389 889.705 153.98 889.33 153.442C888.958 152.905 888.758 152.249 888.727 151.477H890.801C890.831 151.882 890.956 152.219 891.176 152.488C891.396 152.757 891.682 152.958 892.034 153.09C892.39 153.223 892.788 153.289 893.227 153.289C893.686 153.289 894.087 153.221 894.432 153.085C894.78 152.944 895.053 152.751 895.25 152.505C895.447 152.255 895.547 151.963 895.551 151.63C895.547 151.327 895.458 151.077 895.284 150.88C895.11 150.679 894.866 150.513 894.551 150.38C894.241 150.244 893.877 150.122 893.46 150.016L892.136 149.675C891.178 149.429 890.42 149.056 889.864 148.556C889.311 148.052 889.034 147.384 889.034 146.55C889.034 145.865 889.22 145.264 889.591 144.749C889.966 144.234 890.475 143.835 891.119 143.55C891.763 143.263 892.492 143.119 893.307 143.119C894.133 143.119 894.856 143.263 895.477 143.55C896.102 143.835 896.593 144.23 896.949 144.738C897.305 145.242 897.489 145.821 897.5 146.477H895.472ZM904.342 143.278V154.914H902.234V145.329H902.166L899.444 147.067V145.136L902.336 143.278H904.342ZM907.481 154.914V153.391L911.521 149.431C911.907 149.041 912.229 148.694 912.487 148.391C912.744 148.088 912.937 147.795 913.066 147.511C913.195 147.227 913.259 146.924 913.259 146.602C913.259 146.234 913.176 145.92 913.009 145.658C912.843 145.393 912.614 145.189 912.322 145.045C912.03 144.901 911.699 144.829 911.328 144.829C910.945 144.829 910.61 144.908 910.322 145.067C910.034 145.223 909.811 145.444 909.651 145.732C909.496 146.02 909.418 146.363 909.418 146.761H907.413C907.413 146.022 907.581 145.38 907.918 144.835C908.256 144.289 908.72 143.867 909.311 143.567C909.905 143.268 910.587 143.119 911.356 143.119C912.136 143.119 912.822 143.264 913.413 143.556C914.004 143.848 914.462 144.247 914.788 144.755C915.117 145.263 915.282 145.842 915.282 146.494C915.282 146.929 915.199 147.357 915.032 147.778C914.865 148.198 914.572 148.664 914.151 149.175C913.735 149.687 913.15 150.306 912.396 151.033L910.39 153.073V153.153H915.458V154.914H907.481ZM917.716 154.914V143.278H919.824V148.624H919.966L924.506 143.278H927.08L922.58 148.499L927.12 154.914H924.586L921.114 149.925L919.824 151.448V154.914H917.716Z" fill="white"/>
<path d="M892.784 242.369V227.823H893.716V242.369H892.784ZM895.472 232.477C895.419 231.98 895.195 231.594 894.801 231.317C894.411 231.041 893.903 230.903 893.278 230.903C892.839 230.903 892.462 230.969 892.148 231.102C891.833 231.234 891.593 231.414 891.426 231.641C891.259 231.869 891.174 232.128 891.17 232.42C891.17 232.662 891.225 232.872 891.335 233.05C891.449 233.228 891.602 233.38 891.795 233.505C891.989 233.626 892.203 233.728 892.438 233.812C892.672 233.895 892.909 233.965 893.148 234.022L894.239 234.295C894.678 234.397 895.1 234.535 895.506 234.71C895.915 234.884 896.28 235.103 896.602 235.369C896.928 235.634 897.186 235.954 897.375 236.329C897.564 236.704 897.659 237.143 897.659 237.647C897.659 238.329 897.485 238.929 897.136 239.448C896.788 239.963 896.284 240.367 895.625 240.658C894.97 240.946 894.176 241.09 893.244 241.09C892.339 241.09 891.553 240.95 890.886 240.67C890.223 240.389 889.705 239.98 889.33 239.442C888.958 238.905 888.758 238.249 888.727 237.477H890.801C890.831 237.882 890.956 238.219 891.176 238.488C891.396 238.757 891.682 238.958 892.034 239.09C892.39 239.223 892.788 239.289 893.227 239.289C893.686 239.289 894.087 239.221 894.432 239.085C894.78 238.944 895.053 238.751 895.25 238.505C895.447 238.255 895.547 237.963 895.551 237.63C895.547 237.327 895.458 237.077 895.284 236.88C895.11 236.679 894.866 236.513 894.551 236.38C894.241 236.244 893.877 236.122 893.46 236.016L892.136 235.675C891.178 235.429 890.42 235.056 889.864 234.556C889.311 234.052 889.034 233.384 889.034 232.55C889.034 231.865 889.22 231.264 889.591 230.749C889.966 230.234 890.475 229.835 891.119 229.55C891.763 229.263 892.492 229.119 893.307 229.119C894.133 229.119 894.856 229.263 895.477 229.55C896.102 229.835 896.593 230.23 896.949 230.738C897.305 231.242 897.489 231.821 897.5 232.477H895.472ZM899.609 240.914V239.391L903.649 235.431C904.035 235.041 904.357 234.694 904.615 234.391C904.872 234.088 905.066 233.795 905.194 233.511C905.323 233.227 905.388 232.924 905.388 232.602C905.388 232.234 905.304 231.92 905.138 231.658C904.971 231.393 904.742 231.189 904.45 231.045C904.158 230.901 903.827 230.829 903.456 230.829C903.073 230.829 902.738 230.908 902.45 231.067C902.162 231.223 901.939 231.444 901.78 231.732C901.624 232.02 901.547 232.363 901.547 232.761H899.541C899.541 232.022 899.709 231.38 900.047 230.835C900.384 230.289 900.848 229.867 901.439 229.567C902.033 229.268 902.715 229.119 903.484 229.119C904.264 229.119 904.95 229.264 905.541 229.556C906.132 229.848 906.59 230.247 906.916 230.755C907.245 231.263 907.41 231.842 907.41 232.494C907.41 232.929 907.327 233.357 907.16 233.778C906.994 234.198 906.7 234.664 906.28 235.175C905.863 235.687 905.278 236.306 904.524 237.033L902.518 239.073V239.153H907.586V240.914H899.609ZM909.845 240.914V229.278H911.953V234.624H912.095L916.634 229.278H919.208L914.708 234.499L919.248 240.914H916.714L913.242 235.925L911.953 237.448V240.914H909.845Z" fill="white"/>
<path d="M61.7855 333.278H63.8764V341.46C63.8726 342.21 63.7135 342.855 63.3991 343.397C63.0848 343.935 62.6454 344.35 62.081 344.641C61.5204 344.929 60.867 345.073 60.1207 345.073C59.4389 345.073 58.8253 344.952 58.2798 344.71C57.7382 344.463 57.3082 344.1 56.9901 343.619C56.6719 343.138 56.5128 342.539 56.5128 341.823H58.6094C58.6132 342.138 58.6813 342.408 58.8139 342.636C58.9503 342.863 59.1378 343.037 59.3764 343.158C59.6151 343.28 59.8897 343.34 60.2003 343.34C60.5374 343.34 60.8234 343.27 61.0582 343.13C61.2931 342.986 61.4711 342.774 61.5923 342.494C61.7173 342.213 61.7817 341.869 61.7855 341.46V333.278ZM68.5838 345.09C68.0308 345.09 67.5327 344.992 67.0895 344.795C66.6501 344.594 66.3016 344.299 66.044 343.908C65.7902 343.518 65.6634 343.037 65.6634 342.465C65.6634 341.973 65.7543 341.566 65.9361 341.244C66.1179 340.922 66.366 340.664 66.6804 340.471C66.9948 340.278 67.349 340.132 67.7429 340.033C68.1406 339.931 68.5516 339.857 68.9759 339.812C69.4872 339.759 69.902 339.711 70.2202 339.67C70.5384 339.624 70.7694 339.556 70.9134 339.465C71.0611 339.371 71.1349 339.225 71.1349 339.028V338.994C71.1349 338.566 71.008 338.234 70.7543 337.999C70.5005 337.764 70.1349 337.647 69.6577 337.647C69.1539 337.647 68.7543 337.757 68.4588 337.977C68.1671 338.196 67.9702 338.456 67.8679 338.755L65.9474 338.482C66.099 337.952 66.349 337.509 66.6974 337.153C67.0459 336.793 67.4721 336.524 67.9759 336.346C68.4796 336.164 69.0365 336.073 69.6463 336.073C70.0668 336.073 70.4853 336.122 70.902 336.221C71.3187 336.319 71.6993 336.482 72.044 336.71C72.3887 336.933 72.6652 337.238 72.8736 337.624C73.0857 338.011 73.1918 338.494 73.1918 339.073V344.914H71.2145V343.715H71.1463C71.0213 343.958 70.8452 344.185 70.6179 344.397C70.3944 344.605 70.1122 344.774 69.7713 344.903C69.4342 345.028 69.0384 345.09 68.5838 345.09ZM69.1179 343.579C69.5308 343.579 69.8887 343.497 70.1918 343.335C70.4948 343.168 70.7277 342.948 70.8906 342.675C71.0573 342.403 71.1406 342.105 71.1406 341.783V340.755C71.0762 340.808 70.9664 340.857 70.8111 340.903C70.6596 340.948 70.4891 340.988 70.2997 341.022C70.1103 341.056 69.9228 341.086 69.7372 341.113C69.5516 341.139 69.3906 341.162 69.2543 341.181C68.9474 341.223 68.6728 341.291 68.4304 341.386C68.188 341.48 67.9967 341.613 67.8565 341.783C67.7164 341.95 67.6463 342.166 67.6463 342.431C67.6463 342.81 67.7846 343.096 68.0611 343.289C68.3376 343.482 68.6899 343.579 69.1179 343.579ZM77.3168 339.8V344.914H75.2599V336.187H77.2259V337.67H77.3281C77.5289 337.181 77.849 336.793 78.2884 336.505C78.7315 336.217 79.2789 336.073 79.9304 336.073C80.5327 336.073 81.0573 336.202 81.5043 336.46C81.955 336.717 82.3035 337.09 82.5497 337.579C82.7997 338.067 82.9228 338.66 82.919 339.357V344.914H80.8622V339.675C80.8622 339.092 80.7107 338.636 80.4077 338.306C80.1084 337.977 79.6937 337.812 79.1634 337.812C78.8035 337.812 78.4834 337.891 78.2031 338.05C77.9266 338.206 77.7088 338.431 77.5497 338.727C77.3944 339.022 77.3168 339.38 77.3168 339.8Z" fill="#A8A8A8"/>
<path d="M173.642 344.914V333.278H181.097V335.045H175.75V338.204H180.585V339.971H175.75V344.914H173.642ZM186.149 345.085C185.274 345.085 184.519 344.903 183.882 344.539C183.25 344.172 182.763 343.653 182.422 342.982C182.081 342.308 181.911 341.514 181.911 340.602C181.911 339.704 182.081 338.916 182.422 338.238C182.767 337.556 183.248 337.026 183.865 336.647C184.483 336.264 185.208 336.073 186.041 336.073C186.579 336.073 187.087 336.16 187.564 336.335C188.045 336.505 188.469 336.77 188.837 337.13C189.208 337.49 189.5 337.948 189.712 338.505C189.924 339.058 190.03 339.717 190.03 340.482V341.113H182.876V339.727H188.058C188.055 339.333 187.969 338.982 187.803 338.675C187.636 338.365 187.403 338.121 187.104 337.942C186.808 337.764 186.464 337.675 186.07 337.675C185.649 337.675 185.28 337.778 184.962 337.982C184.644 338.183 184.395 338.448 184.217 338.778C184.043 339.103 183.954 339.461 183.95 339.852V341.062C183.95 341.569 184.043 342.005 184.229 342.369C184.414 342.728 184.674 343.005 185.007 343.198C185.341 343.388 185.731 343.482 186.178 343.482C186.477 343.482 186.748 343.441 186.99 343.357C187.233 343.27 187.443 343.143 187.621 342.977C187.799 342.81 187.933 342.603 188.024 342.357L189.945 342.573C189.823 343.081 189.592 343.524 189.251 343.903C188.914 344.278 188.483 344.569 187.956 344.778C187.43 344.982 186.827 345.085 186.149 345.085ZM191.861 344.914V333.278H193.918V337.63H194.003C194.109 337.418 194.259 337.192 194.452 336.954C194.645 336.711 194.906 336.505 195.236 336.335C195.565 336.16 195.986 336.073 196.497 336.073C197.171 336.073 197.779 336.246 198.321 336.59C198.867 336.931 199.298 337.437 199.617 338.107C199.939 338.774 200.099 339.592 200.099 340.562C200.099 341.52 199.942 342.335 199.628 343.005C199.314 343.675 198.885 344.187 198.344 344.539C197.802 344.891 197.189 345.067 196.503 345.067C196.003 345.067 195.588 344.984 195.259 344.817C194.929 344.651 194.664 344.45 194.463 344.215C194.266 343.977 194.113 343.751 194.003 343.539H193.884V344.914H191.861ZM193.878 340.55C193.878 341.115 193.957 341.609 194.117 342.033C194.279 342.458 194.512 342.789 194.815 343.028C195.122 343.263 195.493 343.38 195.929 343.38C196.384 343.38 196.764 343.259 197.071 343.016C197.378 342.77 197.609 342.435 197.764 342.011C197.923 341.583 198.003 341.096 198.003 340.55C198.003 340.009 197.925 339.528 197.77 339.107C197.615 338.687 197.384 338.357 197.077 338.119C196.77 337.88 196.387 337.761 195.929 337.761C195.49 337.761 195.117 337.876 194.81 338.107C194.503 338.338 194.27 338.662 194.111 339.079C193.956 339.496 193.878 339.986 193.878 340.55Z" fill="#A8A8A8"/>
<path d="M290.918 333.278H293.497L296.952 341.71H297.088L300.543 333.278H303.122V344.914H301.1V336.92H300.992L297.776 344.88H296.264L293.049 336.903H292.941V344.914H290.918V333.278ZM307.838 345.09C307.285 345.09 306.787 344.992 306.344 344.795C305.905 344.594 305.556 344.299 305.299 343.908C305.045 343.518 304.918 343.037 304.918 342.465C304.918 341.973 305.009 341.566 305.191 341.244C305.372 340.922 305.621 340.664 305.935 340.471C306.249 340.278 306.603 340.132 306.997 340.033C307.395 339.931 307.806 339.857 308.23 339.812C308.742 339.759 309.157 339.711 309.475 339.67C309.793 339.624 310.024 339.556 310.168 339.465C310.316 339.371 310.389 339.225 310.389 339.028V338.994C310.389 338.566 310.263 338.234 310.009 337.999C309.755 337.764 309.389 337.647 308.912 337.647C308.408 337.647 308.009 337.757 307.713 337.977C307.422 338.196 307.225 338.456 307.122 338.755L305.202 338.482C305.353 337.952 305.603 337.509 305.952 337.153C306.3 336.793 306.727 336.524 307.23 336.346C307.734 336.164 308.291 336.073 308.901 336.073C309.321 336.073 309.74 336.122 310.157 336.221C310.573 336.319 310.954 336.482 311.299 336.71C311.643 336.933 311.92 337.238 312.128 337.624C312.34 338.011 312.446 338.494 312.446 339.073V344.914H310.469V343.715H310.401C310.276 343.958 310.1 344.185 309.872 344.397C309.649 344.605 309.367 344.774 309.026 344.903C308.689 345.028 308.293 345.09 307.838 345.09ZM308.372 343.579C308.785 343.579 309.143 343.497 309.446 343.335C309.749 343.168 309.982 342.948 310.145 342.675C310.312 342.403 310.395 342.105 310.395 341.783V340.755C310.331 340.808 310.221 340.857 310.066 340.903C309.914 340.948 309.744 340.988 309.554 341.022C309.365 341.056 309.177 341.086 308.992 341.113C308.806 341.139 308.645 341.162 308.509 341.181C308.202 341.223 307.927 341.291 307.685 341.386C307.442 341.48 307.251 341.613 307.111 341.783C306.971 341.95 306.901 342.166 306.901 342.431C306.901 342.81 307.039 343.096 307.316 343.289C307.592 343.482 307.944 343.579 308.372 343.579ZM314.514 344.914V336.187H316.509V337.641H316.6C316.759 337.138 317.032 336.749 317.418 336.477C317.808 336.2 318.253 336.062 318.753 336.062C318.867 336.062 318.994 336.067 319.134 336.079C319.278 336.086 319.397 336.1 319.492 336.119V338.011C319.405 337.98 319.266 337.954 319.077 337.931C318.891 337.905 318.711 337.891 318.537 337.891C318.162 337.891 317.825 337.973 317.526 338.136C317.23 338.295 316.997 338.516 316.827 338.8C316.657 339.085 316.571 339.412 316.571 339.783V344.914H314.514Z" fill="#A8A8A8"/>
<path d="M411.11 344.914H408.86L412.956 333.278H415.559L419.661 344.914H417.411L414.303 335.664H414.212L411.11 344.914ZM411.184 340.352H417.32V342.045H411.184V340.352ZM421.103 348.187V336.187H423.125V337.63H423.245C423.351 337.418 423.5 337.192 423.694 336.954C423.887 336.711 424.148 336.505 424.478 336.335C424.807 336.16 425.228 336.073 425.739 336.073C426.413 336.073 427.021 336.246 427.563 336.59C428.108 336.931 428.54 337.437 428.858 338.107C429.18 338.774 429.341 339.592 429.341 340.562C429.341 341.52 429.184 342.335 428.87 343.005C428.555 343.675 428.127 344.187 427.586 344.539C427.044 344.891 426.43 345.067 425.745 345.067C425.245 345.067 424.83 344.984 424.5 344.817C424.171 344.651 423.906 344.45 423.705 344.215C423.508 343.977 423.354 343.751 423.245 343.539H423.159V348.187H421.103ZM423.12 340.55C423.12 341.115 423.199 341.609 423.358 342.033C423.521 342.458 423.754 342.789 424.057 343.028C424.364 343.263 424.735 343.38 425.171 343.38C425.625 343.38 426.006 343.259 426.313 343.016C426.62 342.77 426.851 342.435 427.006 342.011C427.165 341.583 427.245 341.096 427.245 340.55C427.245 340.009 427.167 339.528 427.012 339.107C426.856 338.687 426.625 338.357 426.319 338.119C426.012 337.88 425.629 337.761 425.171 337.761C424.731 337.761 424.358 337.876 424.051 338.107C423.745 338.338 423.512 338.662 423.353 339.079C423.197 339.496 423.12 339.986 423.12 340.55ZM431.103 344.914V336.187H433.097V337.641H433.188C433.347 337.138 433.62 336.749 434.006 336.477C434.396 336.2 434.841 336.062 435.341 336.062C435.455 336.062 435.582 336.067 435.722 336.079C435.866 336.086 435.985 336.1 436.08 336.119V338.011C435.993 337.98 435.854 337.954 435.665 337.931C435.479 337.905 435.3 337.891 435.125 337.891C434.75 337.891 434.413 337.973 434.114 338.136C433.819 338.295 433.586 338.516 433.415 338.8C433.245 339.085 433.159 339.412 433.159 339.783V344.914H431.103Z" fill="#A8A8A8"/>
<path d="M525.922 333.278H528.502L531.956 341.71H532.093L535.547 333.278H538.127V344.914H536.104V336.92H535.996L532.78 344.88H531.269L528.053 336.903H527.945V344.914H525.922V333.278ZM542.843 345.09C542.29 345.09 541.792 344.992 541.348 344.795C540.909 344.594 540.561 344.299 540.303 343.908C540.049 343.518 539.922 343.037 539.922 342.465C539.922 341.973 540.013 341.566 540.195 341.244C540.377 340.922 540.625 340.664 540.939 340.471C541.254 340.278 541.608 340.132 542.002 340.033C542.4 339.931 542.811 339.857 543.235 339.812C543.746 339.759 544.161 339.711 544.479 339.67C544.797 339.624 545.028 339.556 545.172 339.465C545.32 339.371 545.394 339.225 545.394 339.028V338.994C545.394 338.566 545.267 338.234 545.013 337.999C544.759 337.764 544.394 337.647 543.917 337.647C543.413 337.647 543.013 337.757 542.718 337.977C542.426 338.196 542.229 338.456 542.127 338.755L540.206 338.482C540.358 337.952 540.608 337.509 540.956 337.153C541.305 336.793 541.731 336.524 542.235 336.346C542.739 336.164 543.295 336.073 543.905 336.073C544.326 336.073 544.744 336.122 545.161 336.221C545.578 336.319 545.958 336.482 546.303 336.71C546.648 336.933 546.924 337.238 547.132 337.624C547.345 338.011 547.451 338.494 547.451 339.073V344.914H545.473V343.715H545.405C545.28 343.958 545.104 344.185 544.877 344.397C544.653 344.605 544.371 344.774 544.03 344.903C543.693 345.028 543.297 345.09 542.843 345.09ZM543.377 343.579C543.79 343.579 544.148 343.497 544.451 343.335C544.754 343.168 544.987 342.948 545.15 342.675C545.316 342.403 545.4 342.105 545.4 341.783V340.755C545.335 340.808 545.225 340.857 545.07 340.903C544.918 340.948 544.748 340.988 544.559 341.022C544.369 341.056 544.182 341.086 543.996 341.113C543.811 341.139 543.65 341.162 543.513 341.181C543.206 341.223 542.932 341.291 542.689 341.386C542.447 341.48 542.256 341.613 542.115 341.783C541.975 341.95 541.905 342.166 541.905 342.431C541.905 342.81 542.043 343.096 542.32 343.289C542.597 343.482 542.949 343.579 543.377 343.579ZM550.485 348.187C550.204 348.187 549.945 348.164 549.706 348.119C549.472 348.077 549.284 348.028 549.144 347.971L549.621 346.369C549.92 346.456 550.187 346.497 550.422 346.494C550.657 346.49 550.864 346.416 551.042 346.272C551.223 346.132 551.377 345.897 551.502 345.567L551.678 345.096L548.513 336.187H550.695L552.706 342.778H552.797L554.814 336.187H557.002L553.507 345.971C553.345 346.433 553.129 346.829 552.86 347.158C552.591 347.492 552.261 347.746 551.871 347.92C551.485 348.098 551.023 348.187 550.485 348.187Z" fill="#A8A8A8"/>
<path d="M651.726 333.278H653.817V341.46C653.814 342.21 653.654 342.855 653.34 343.397C653.026 343.935 652.586 344.35 652.022 344.641C651.461 344.929 650.808 345.073 650.062 345.073C649.38 345.073 648.766 344.952 648.221 344.71C647.679 344.463 647.249 344.1 646.931 343.619C646.613 343.138 646.454 342.539 646.454 341.823H648.55C648.554 342.138 648.622 342.408 648.755 342.636C648.891 342.863 649.079 343.037 649.317 343.158C649.556 343.28 649.831 343.34 650.141 343.34C650.478 343.34 650.764 343.27 650.999 343.13C651.234 342.986 651.412 342.774 651.533 342.494C651.658 342.213 651.723 341.869 651.726 341.46V333.278ZM661.576 341.244V336.187H663.633V344.914H661.638V343.363H661.547C661.35 343.852 661.027 344.251 660.576 344.562C660.129 344.872 659.578 345.028 658.922 345.028C658.35 345.028 657.845 344.901 657.405 344.647C656.97 344.389 656.629 344.016 656.383 343.528C656.136 343.035 656.013 342.441 656.013 341.744V336.187H658.07V341.425C658.07 341.978 658.222 342.418 658.525 342.744C658.828 343.069 659.225 343.232 659.718 343.232C660.021 343.232 660.314 343.158 660.599 343.011C660.883 342.863 661.116 342.643 661.297 342.352C661.483 342.056 661.576 341.687 661.576 341.244ZM667.805 339.8V344.914H665.748V336.187H667.714V337.67H667.816C668.017 337.181 668.337 336.793 668.776 336.505C669.219 336.217 669.767 336.073 670.418 336.073C671.02 336.073 671.545 336.202 671.992 336.46C672.443 336.717 672.791 337.09 673.038 337.579C673.288 338.067 673.411 338.66 673.407 339.357V344.914H671.35V339.675C671.35 339.092 671.198 338.636 670.895 338.306C670.596 337.977 670.181 337.812 669.651 337.812C669.291 337.812 668.971 337.891 668.691 338.05C668.414 338.206 668.197 338.431 668.038 338.727C667.882 339.022 667.805 339.38 667.805 339.8Z" fill="#A8A8A8"/>
<path d="M768.658 333.278H770.749V341.46C770.745 342.21 770.586 342.855 770.272 343.397C769.958 343.935 769.518 344.35 768.954 344.641C768.393 344.929 767.74 345.073 766.994 345.073C766.312 345.073 765.698 344.952 765.153 344.71C764.611 344.463 764.181 344.1 763.863 343.619C763.545 343.138 763.386 342.539 763.386 341.823H765.482C765.486 342.138 765.554 342.408 765.687 342.636C765.823 342.863 766.011 343.037 766.249 343.158C766.488 343.28 766.762 343.34 767.073 343.34C767.41 343.34 767.696 343.27 767.931 343.13C768.166 342.986 768.344 342.774 768.465 342.494C768.59 342.213 768.655 341.869 768.658 341.46V333.278ZM778.508 341.244V336.187H780.565V344.914H778.57V343.363H778.479C778.282 343.852 777.959 344.251 777.508 344.562C777.061 344.872 776.51 345.028 775.854 345.028C775.282 345.028 774.777 344.901 774.337 344.647C773.902 344.389 773.561 344.016 773.315 343.528C773.068 343.035 772.945 342.441 772.945 341.744V336.187H775.002V341.425C775.002 341.978 775.154 342.418 775.457 342.744C775.76 343.069 776.157 343.232 776.65 343.232C776.953 343.232 777.246 343.158 777.53 343.011C777.815 342.863 778.048 342.643 778.229 342.352C778.415 342.056 778.508 341.687 778.508 341.244ZM784.736 333.278V344.914H782.68V333.278H784.736Z" fill="#A8A8A8"/>
<path d="M876.986 344.914H874.736L878.832 333.278H881.435L885.537 344.914H883.287L880.179 335.664H880.088L876.986 344.914ZM877.06 340.352H883.196V342.045H877.06V340.352ZM892.541 341.244V336.187H894.598V344.914H892.604V343.363H892.513C892.316 343.852 891.992 344.251 891.541 344.562C891.094 344.872 890.543 345.028 889.888 345.028C889.316 345.028 888.81 344.901 888.371 344.647C887.935 344.389 887.594 344.016 887.348 343.528C887.102 343.035 886.979 342.441 886.979 341.744V336.187H889.036V341.425C889.036 341.978 889.187 342.418 889.49 342.744C889.793 343.069 890.191 343.232 890.683 343.232C890.986 343.232 891.28 343.158 891.564 343.011C891.848 342.863 892.081 342.643 892.263 342.352C892.448 342.056 892.541 341.687 892.541 341.244ZM900.509 348.369C899.77 348.369 899.135 348.268 898.605 348.067C898.075 347.871 897.649 347.605 897.327 347.272C897.005 346.939 896.781 346.569 896.656 346.164L898.509 345.715C898.592 345.886 898.713 346.054 898.872 346.221C899.031 346.391 899.245 346.531 899.514 346.641C899.787 346.755 900.13 346.812 900.543 346.812C901.126 346.812 901.609 346.67 901.991 346.386C902.374 346.105 902.565 345.643 902.565 344.999V343.346H902.463C902.357 343.558 902.202 343.776 901.997 343.999C901.796 344.223 901.529 344.41 901.196 344.562C900.866 344.713 900.452 344.789 899.952 344.789C899.281 344.789 898.673 344.632 898.128 344.317C897.586 343.999 897.154 343.526 896.832 342.897C896.514 342.264 896.355 341.473 896.355 340.522C896.355 339.564 896.514 338.755 896.832 338.096C897.154 337.433 897.588 336.931 898.134 336.59C898.679 336.246 899.287 336.073 899.957 336.073C900.469 336.073 900.889 336.16 901.219 336.335C901.552 336.505 901.817 336.711 902.014 336.954C902.211 337.192 902.361 337.418 902.463 337.63H902.577V336.187H904.605V345.056C904.605 345.802 904.427 346.42 904.071 346.908C903.715 347.397 903.228 347.763 902.611 348.005C901.993 348.247 901.293 348.369 900.509 348.369ZM900.526 343.175C900.961 343.175 901.332 343.069 901.639 342.857C901.946 342.645 902.179 342.34 902.338 341.942C902.497 341.545 902.577 341.067 902.577 340.511C902.577 339.961 902.497 339.48 902.338 339.067C902.183 338.655 901.952 338.335 901.645 338.107C901.342 337.876 900.969 337.761 900.526 337.761C900.067 337.761 899.685 337.88 899.378 338.119C899.071 338.357 898.84 338.685 898.685 339.102C898.529 339.514 898.452 339.984 898.452 340.511C898.452 341.045 898.529 341.513 898.685 341.914C898.844 342.312 899.077 342.622 899.384 342.846C899.694 343.066 900.075 343.175 900.526 343.175Z" fill="#A8A8A8"/>
<circle cx="644" cy="400.414" r="9" fill="#EEA837"/>
<path d="M677.483 394.278H679.591V401.88C679.591 402.713 679.394 403.446 679 404.079C678.61 404.711 678.061 405.206 677.352 405.562C676.644 405.914 675.816 406.09 674.869 406.09C673.919 406.09 673.089 405.914 672.381 405.562C671.672 405.206 671.123 404.711 670.733 404.079C670.343 403.446 670.148 402.713 670.148 401.88V394.278H672.256V401.704C672.256 402.189 672.362 402.621 672.574 402.999C672.79 403.378 673.093 403.675 673.483 403.891C673.873 404.103 674.335 404.21 674.869 404.21C675.403 404.21 675.866 404.103 676.256 403.891C676.65 403.675 676.953 403.378 677.165 402.999C677.377 402.621 677.483 402.189 677.483 401.704V394.278ZM684.032 400.8V405.914H681.976V397.187H683.941V398.67H684.044C684.245 398.181 684.565 397.793 685.004 397.505C685.447 397.217 685.995 397.073 686.646 397.073C687.248 397.073 687.773 397.202 688.22 397.46C688.671 397.717 689.019 398.09 689.265 398.579C689.515 399.067 689.638 399.66 689.635 400.357V405.914H687.578V400.675C687.578 400.092 687.426 399.636 687.123 399.306C686.824 398.977 686.409 398.812 685.879 398.812C685.519 398.812 685.199 398.891 684.919 399.05C684.642 399.206 684.424 399.431 684.265 399.727C684.11 400.022 684.032 400.38 684.032 400.8ZM691.91 405.914V397.187H693.967V405.914H691.91ZM692.944 395.948C692.618 395.948 692.338 395.84 692.103 395.624C691.868 395.405 691.751 395.141 691.751 394.835C691.751 394.524 691.868 394.261 692.103 394.045C692.338 393.825 692.618 393.715 692.944 393.715C693.274 393.715 693.554 393.825 693.785 394.045C694.02 394.261 694.137 394.524 694.137 394.835C694.137 395.141 694.02 395.405 693.785 395.624C693.554 395.84 693.274 395.948 692.944 395.948ZM700.624 397.187V398.778H695.607V397.187H700.624ZM696.846 395.096H698.903V403.289C698.903 403.566 698.944 403.778 699.028 403.925C699.115 404.069 699.228 404.168 699.368 404.221C699.509 404.274 699.664 404.3 699.834 404.3C699.963 404.3 700.081 404.291 700.187 404.272C700.297 404.253 700.38 404.236 700.437 404.221L700.783 405.829C700.673 405.867 700.516 405.908 700.312 405.954C700.111 405.999 699.865 406.026 699.573 406.033C699.058 406.049 698.594 405.971 698.181 405.8C697.768 405.626 697.44 405.357 697.198 404.994C696.959 404.63 696.842 404.175 696.846 403.63V395.096ZM713.58 399.494L711.705 399.698C711.652 399.509 711.559 399.331 711.426 399.164C711.297 398.997 711.123 398.863 710.903 398.761C710.684 398.658 710.415 398.607 710.097 398.607C709.669 398.607 709.309 398.7 709.017 398.886C708.729 399.071 708.587 399.312 708.591 399.607C708.587 399.861 708.68 400.067 708.869 400.227C709.063 400.386 709.381 400.516 709.824 400.619L711.313 400.937C712.138 401.115 712.752 401.397 713.153 401.783C713.559 402.17 713.763 402.675 713.767 403.3C713.763 403.85 713.602 404.335 713.284 404.755C712.97 405.172 712.532 405.497 711.972 405.732C711.411 405.967 710.767 406.085 710.04 406.085C708.972 406.085 708.112 405.861 707.46 405.414C706.809 404.963 706.42 404.336 706.295 403.533L708.301 403.34C708.392 403.734 708.585 404.031 708.881 404.232C709.176 404.433 709.561 404.533 710.034 404.533C710.523 404.533 710.915 404.433 711.21 404.232C711.51 404.031 711.659 403.783 711.659 403.488C711.659 403.238 711.563 403.031 711.369 402.869C711.18 402.706 710.885 402.581 710.483 402.494L708.994 402.181C708.157 402.007 707.538 401.713 707.136 401.3C706.735 400.884 706.536 400.357 706.54 399.721C706.536 399.183 706.682 398.717 706.977 398.323C707.277 397.925 707.691 397.619 708.222 397.403C708.756 397.183 709.371 397.073 710.068 397.073C711.091 397.073 711.896 397.291 712.483 397.727C713.074 398.162 713.439 398.751 713.58 399.494ZM719.454 406.085C718.602 406.085 717.863 405.897 717.238 405.522C716.613 405.147 716.129 404.622 715.784 403.948C715.443 403.274 715.272 402.486 715.272 401.585C715.272 400.683 715.443 399.893 715.784 399.215C716.129 398.537 716.613 398.011 717.238 397.636C717.863 397.261 718.602 397.073 719.454 397.073C720.307 397.073 721.045 397.261 721.67 397.636C722.295 398.011 722.778 398.537 723.119 399.215C723.464 399.893 723.636 400.683 723.636 401.585C723.636 402.486 723.464 403.274 723.119 403.948C722.778 404.622 722.295 405.147 721.67 405.522C721.045 405.897 720.307 406.085 719.454 406.085ZM719.466 404.437C719.928 404.437 720.314 404.31 720.625 404.056C720.935 403.799 721.166 403.454 721.318 403.022C721.473 402.59 721.551 402.109 721.551 401.579C721.551 401.045 721.473 400.562 721.318 400.13C721.166 399.694 720.935 399.348 720.625 399.09C720.314 398.833 719.928 398.704 719.466 398.704C718.992 398.704 718.598 398.833 718.284 399.09C717.973 399.348 717.74 399.694 717.585 400.13C717.433 400.562 717.358 401.045 717.358 401.579C717.358 402.109 717.433 402.59 717.585 403.022C717.74 403.454 717.973 403.799 718.284 404.056C718.598 404.31 718.992 404.437 719.466 404.437ZM727.623 394.278V405.914H725.566V394.278H727.623ZM733.161 406.067C732.476 406.067 731.862 405.891 731.32 405.539C730.779 405.187 730.351 404.675 730.036 404.005C729.722 403.335 729.565 402.52 729.565 401.562C729.565 400.592 729.724 399.774 730.042 399.107C730.364 398.437 730.797 397.931 731.343 397.59C731.888 397.246 732.496 397.073 733.167 397.073C733.678 397.073 734.099 397.16 734.428 397.335C734.758 397.505 735.019 397.711 735.212 397.954C735.405 398.192 735.555 398.418 735.661 398.63H735.746V394.278H737.809V405.914H735.786V404.539H735.661C735.555 404.751 735.402 404.977 735.201 405.215C735 405.45 734.735 405.651 734.405 405.817C734.076 405.984 733.661 406.067 733.161 406.067ZM733.735 404.38C734.171 404.38 734.542 404.263 734.849 404.028C735.155 403.789 735.388 403.458 735.547 403.033C735.707 402.609 735.786 402.115 735.786 401.55C735.786 400.986 735.707 400.496 735.547 400.079C735.392 399.662 735.161 399.338 734.854 399.107C734.551 398.876 734.178 398.761 733.735 398.761C733.277 398.761 732.894 398.88 732.587 399.119C732.28 399.357 732.049 399.687 731.894 400.107C731.739 400.528 731.661 401.009 731.661 401.55C731.661 402.096 731.739 402.583 731.894 403.011C732.053 403.435 732.286 403.77 732.593 404.016C732.904 404.259 733.284 404.38 733.735 404.38Z" fill="white"/>
<circle cx="788" cy="400.414" r="9" fill="#0D8E02"/>
<path d="M820.472 397.477C820.419 396.98 820.195 396.594 819.801 396.317C819.411 396.041 818.903 395.903 818.278 395.903C817.839 395.903 817.462 395.969 817.148 396.102C816.833 396.234 816.593 396.414 816.426 396.641C816.259 396.869 816.174 397.128 816.17 397.42C816.17 397.662 816.225 397.872 816.335 398.05C816.449 398.228 816.602 398.38 816.795 398.505C816.989 398.626 817.203 398.728 817.438 398.812C817.672 398.895 817.909 398.965 818.148 399.022L819.239 399.295C819.678 399.397 820.1 399.535 820.506 399.71C820.915 399.884 821.28 400.103 821.602 400.369C821.928 400.634 822.186 400.954 822.375 401.329C822.564 401.704 822.659 402.143 822.659 402.647C822.659 403.329 822.485 403.929 822.136 404.448C821.788 404.963 821.284 405.367 820.625 405.658C819.97 405.946 819.176 406.09 818.244 406.09C817.339 406.09 816.553 405.95 815.886 405.67C815.223 405.389 814.705 404.98 814.33 404.442C813.958 403.905 813.758 403.249 813.727 402.477H815.801C815.831 402.882 815.956 403.219 816.176 403.488C816.396 403.757 816.682 403.958 817.034 404.09C817.39 404.223 817.788 404.289 818.227 404.289C818.686 404.289 819.087 404.221 819.432 404.085C819.78 403.944 820.053 403.751 820.25 403.505C820.447 403.255 820.547 402.963 820.551 402.63C820.547 402.327 820.458 402.077 820.284 401.88C820.11 401.679 819.866 401.513 819.551 401.38C819.241 401.244 818.877 401.122 818.46 401.016L817.136 400.675C816.178 400.429 815.42 400.056 814.864 399.556C814.311 399.052 814.034 398.384 814.034 397.55C814.034 396.865 814.22 396.264 814.591 395.749C814.966 395.234 815.475 394.835 816.119 394.55C816.763 394.263 817.492 394.119 818.307 394.119C819.133 394.119 819.856 394.263 820.477 394.55C821.102 394.835 821.593 395.23 821.949 395.738C822.305 396.242 822.489 396.821 822.5 397.477H820.472ZM826.689 400.8V405.914H824.632V394.278H826.643V398.67H826.745C826.95 398.177 827.266 397.789 827.694 397.505C828.126 397.217 828.675 397.073 829.342 397.073C829.948 397.073 830.477 397.2 830.927 397.454C831.378 397.708 831.727 398.079 831.973 398.567C832.223 399.056 832.348 399.653 832.348 400.357V405.914H830.291V400.675C830.291 400.088 830.139 399.632 829.836 399.306C829.537 398.977 829.117 398.812 828.575 398.812C828.211 398.812 827.886 398.891 827.598 399.05C827.314 399.206 827.09 399.431 826.927 399.727C826.768 400.022 826.689 400.38 826.689 400.8ZM837.14 406.09C836.587 406.09 836.089 405.992 835.646 405.795C835.206 405.594 834.858 405.299 834.6 404.908C834.347 404.518 834.22 404.037 834.22 403.465C834.22 402.973 834.311 402.566 834.492 402.244C834.674 401.922 834.922 401.664 835.237 401.471C835.551 401.278 835.905 401.132 836.299 401.033C836.697 400.931 837.108 400.857 837.532 400.812C838.043 400.759 838.458 400.711 838.776 400.67C839.095 400.624 839.326 400.556 839.47 400.465C839.617 400.371 839.691 400.225 839.691 400.028V399.994C839.691 399.566 839.564 399.234 839.311 398.999C839.057 398.764 838.691 398.647 838.214 398.647C837.71 398.647 837.311 398.757 837.015 398.977C836.723 399.196 836.526 399.456 836.424 399.755L834.504 399.482C834.655 398.952 834.905 398.509 835.254 398.153C835.602 397.793 836.028 397.524 836.532 397.346C837.036 397.164 837.593 397.073 838.203 397.073C838.623 397.073 839.042 397.122 839.458 397.221C839.875 397.319 840.256 397.482 840.6 397.71C840.945 397.933 841.222 398.238 841.43 398.624C841.642 399.011 841.748 399.494 841.748 400.073V405.914H839.771V404.715H839.703C839.578 404.958 839.401 405.185 839.174 405.397C838.951 405.605 838.668 405.774 838.328 405.903C837.99 406.028 837.595 406.09 837.14 406.09ZM837.674 404.579C838.087 404.579 838.445 404.497 838.748 404.335C839.051 404.168 839.284 403.948 839.447 403.675C839.614 403.403 839.697 403.105 839.697 402.783V401.755C839.632 401.808 839.523 401.857 839.367 401.903C839.216 401.948 839.045 401.988 838.856 402.022C838.667 402.056 838.479 402.086 838.293 402.113C838.108 402.139 837.947 402.162 837.811 402.181C837.504 402.223 837.229 402.291 836.987 402.386C836.744 402.48 836.553 402.613 836.413 402.783C836.273 402.95 836.203 403.166 836.203 403.431C836.203 403.81 836.341 404.096 836.617 404.289C836.894 404.482 837.246 404.579 837.674 404.579ZM844.001 405.914V397.187H845.995V398.641H846.086C846.245 398.138 846.518 397.749 846.904 397.477C847.294 397.2 847.739 397.062 848.239 397.062C848.353 397.062 848.48 397.067 848.62 397.079C848.764 397.086 848.883 397.1 848.978 397.119V399.011C848.891 398.98 848.752 398.954 848.563 398.931C848.377 398.905 848.198 398.891 848.023 398.891C847.648 398.891 847.311 398.973 847.012 399.136C846.716 399.295 846.484 399.516 846.313 399.8C846.143 400.085 846.057 400.412 846.057 400.783V405.914H844.001ZM854.033 406.085C853.158 406.085 852.402 405.903 851.766 405.539C851.133 405.172 850.647 404.653 850.306 403.982C849.965 403.308 849.794 402.514 849.794 401.602C849.794 400.704 849.965 399.916 850.306 399.238C850.65 398.556 851.131 398.026 851.749 397.647C852.366 397.264 853.092 397.073 853.925 397.073C854.463 397.073 854.97 397.16 855.448 397.335C855.929 397.505 856.353 397.77 856.72 398.13C857.092 398.49 857.383 398.948 857.595 399.505C857.808 400.058 857.914 400.717 857.914 401.482V402.113H850.76V400.727H855.942C855.938 400.333 855.853 399.982 855.686 399.675C855.52 399.365 855.287 399.121 854.988 398.942C854.692 398.764 854.347 398.675 853.953 398.675C853.533 398.675 853.164 398.778 852.845 398.982C852.527 399.183 852.279 399.448 852.101 399.778C851.927 400.103 851.838 400.461 851.834 400.852V402.062C851.834 402.569 851.927 403.005 852.113 403.369C852.298 403.728 852.558 404.005 852.891 404.198C853.224 404.388 853.614 404.482 854.061 404.482C854.361 404.482 854.631 404.441 854.874 404.357C855.116 404.27 855.327 404.143 855.505 403.977C855.683 403.81 855.817 403.603 855.908 403.357L857.828 403.573C857.707 404.081 857.476 404.524 857.135 404.903C856.798 405.278 856.366 405.569 855.84 405.778C855.313 405.982 854.711 406.085 854.033 406.085ZM866.736 399.494L864.861 399.698C864.808 399.509 864.715 399.331 864.582 399.164C864.454 398.997 864.279 398.863 864.06 398.761C863.84 398.658 863.571 398.607 863.253 398.607C862.825 398.607 862.465 398.7 862.173 398.886C861.885 399.071 861.743 399.312 861.747 399.607C861.743 399.861 861.836 400.067 862.026 400.227C862.219 400.386 862.537 400.516 862.98 400.619L864.469 400.937C865.295 401.115 865.908 401.397 866.31 401.783C866.715 402.17 866.92 402.675 866.923 403.3C866.92 403.85 866.759 404.335 866.44 404.755C866.126 405.172 865.688 405.497 865.128 405.732C864.567 405.967 863.923 406.085 863.196 406.085C862.128 406.085 861.268 405.861 860.617 405.414C859.965 404.963 859.577 404.336 859.452 403.533L861.457 403.34C861.548 403.734 861.742 404.031 862.037 404.232C862.332 404.433 862.717 404.533 863.19 404.533C863.679 404.533 864.071 404.433 864.367 404.232C864.666 404.031 864.815 403.783 864.815 403.488C864.815 403.238 864.719 403.031 864.526 402.869C864.336 402.706 864.041 402.581 863.639 402.494L862.151 402.181C861.313 402.007 860.694 401.713 860.293 401.3C859.891 400.884 859.692 400.357 859.696 399.721C859.692 399.183 859.838 398.717 860.134 398.323C860.433 397.925 860.848 397.619 861.378 397.403C861.912 397.183 862.527 397.073 863.224 397.073C864.247 397.073 865.052 397.291 865.639 397.727C866.23 398.162 866.596 398.751 866.736 399.494ZM879.855 399.494L877.98 399.698C877.927 399.509 877.834 399.331 877.701 399.164C877.572 398.997 877.398 398.863 877.178 398.761C876.959 398.658 876.69 398.607 876.372 398.607C875.944 398.607 875.584 398.7 875.292 398.886C875.004 399.071 874.862 399.312 874.866 399.607C874.862 399.861 874.955 400.067 875.144 400.227C875.338 400.386 875.656 400.516 876.099 400.619L877.588 400.937C878.413 401.115 879.027 401.397 879.428 401.783C879.834 402.17 880.038 402.675 880.042 403.3C880.038 403.85 879.877 404.335 879.559 404.755C879.245 405.172 878.807 405.497 878.247 405.732C877.686 405.967 877.042 406.085 876.315 406.085C875.247 406.085 874.387 405.861 873.735 405.414C873.084 404.963 872.695 404.336 872.57 403.533L874.576 403.34C874.667 403.734 874.86 404.031 875.156 404.232C875.451 404.433 875.836 404.533 876.309 404.533C876.798 404.533 877.19 404.433 877.485 404.232C877.785 404.031 877.934 403.783 877.934 403.488C877.934 403.238 877.838 403.031 877.644 402.869C877.455 402.706 877.16 402.581 876.758 402.494L875.269 402.181C874.432 402.007 873.813 401.713 873.411 401.3C873.01 400.884 872.811 400.357 872.815 399.721C872.811 399.183 872.957 398.717 873.252 398.323C873.552 397.925 873.966 397.619 874.497 397.403C875.031 397.183 875.646 397.073 876.343 397.073C877.366 397.073 878.171 397.291 878.758 397.727C879.349 398.162 879.714 398.751 879.855 399.494ZM885.729 406.085C884.877 406.085 884.138 405.897 883.513 405.522C882.888 405.147 882.404 404.622 882.059 403.948C881.718 403.274 881.547 402.486 881.547 401.585C881.547 400.683 881.718 399.893 882.059 399.215C882.404 398.537 882.888 398.011 883.513 397.636C884.138 397.261 884.877 397.073 885.729 397.073C886.582 397.073 887.32 397.261 887.945 397.636C888.57 398.011 889.053 398.537 889.394 399.215C889.739 399.893 889.911 400.683 889.911 401.585C889.911 402.486 889.739 403.274 889.394 403.948C889.053 404.622 888.57 405.147 887.945 405.522C887.32 405.897 886.582 406.085 885.729 406.085ZM885.741 404.437C886.203 404.437 886.589 404.31 886.9 404.056C887.21 403.799 887.441 403.454 887.593 403.022C887.748 402.59 887.826 402.109 887.826 401.579C887.826 401.045 887.748 400.562 887.593 400.13C887.441 399.694 887.21 399.348 886.9 399.09C886.589 398.833 886.203 398.704 885.741 398.704C885.267 398.704 884.873 398.833 884.559 399.09C884.248 399.348 884.015 399.694 883.86 400.13C883.708 400.562 883.633 401.045 883.633 401.579C883.633 402.109 883.708 402.59 883.86 403.022C884.015 403.454 884.248 403.799 884.559 404.056C884.873 404.31 885.267 404.437 885.741 404.437ZM893.898 394.278V405.914H891.841V394.278H893.898ZM899.436 406.067C898.751 406.067 898.137 405.891 897.595 405.539C897.054 405.187 896.626 404.675 896.311 404.005C895.997 403.335 895.84 402.52 895.84 401.562C895.84 400.592 895.999 399.774 896.317 399.107C896.639 398.437 897.073 397.931 897.618 397.59C898.163 397.246 898.771 397.073 899.442 397.073C899.953 397.073 900.374 397.16 900.703 397.335C901.033 397.505 901.294 397.711 901.487 397.954C901.68 398.192 901.83 398.418 901.936 398.63H902.021V394.278H904.084V405.914H902.061V404.539H901.936C901.83 404.751 901.677 404.977 901.476 405.215C901.275 405.45 901.01 405.651 900.68 405.817C900.351 405.984 899.936 406.067 899.436 406.067ZM900.01 404.38C900.446 404.38 900.817 404.263 901.124 404.028C901.43 403.789 901.663 403.458 901.823 403.033C901.982 402.609 902.061 402.115 902.061 401.55C902.061 400.986 901.982 400.496 901.823 400.079C901.667 399.662 901.436 399.338 901.129 399.107C900.826 398.876 900.453 398.761 900.01 398.761C899.552 398.761 899.169 398.88 898.862 399.119C898.555 399.357 898.324 399.687 898.169 400.107C898.014 400.528 897.936 401.009 897.936 401.55C897.936 402.096 898.014 402.583 898.169 403.011C898.328 403.435 898.561 403.77 898.868 404.016C899.179 404.259 899.559 404.38 900.01 404.38Z" fill="white"/>
<defs>
<clipPath id="clip0_85_1304">
<rect width="882" height="179" fill="white" transform="translate(61 132.914)"/>
</clipPath>
</defs>
</svg>
