<svg width="21" height="20" viewBox="0 0 21 20" fill="none" xmlns="http://www.w3.org/2000/svg">
<path d="M8.13069 17.3098V14.7542C8.13067 14.1042 8.66061 13.576 9.31718 13.5717H11.7222C12.382 13.5717 12.9168 14.1011 12.9168 14.7542V14.7542V17.3178C12.9166 17.8697 13.3616 18.3207 13.9189 18.3337H15.5222C17.1206 18.3337 18.4163 17.0509 18.4163 15.4685V15.4685V8.19852C18.4078 7.57602 18.1126 6.99145 17.6147 6.61119L12.1311 2.23808C11.1705 1.47663 9.80484 1.47663 8.84419 2.23808L3.3847 6.61912C2.88489 6.99784 2.58916 7.58338 2.58301 8.20646V15.4685C2.58301 17.0509 3.87874 18.3337 5.4771 18.3337H7.08048C7.65164 18.3337 8.11465 17.8753 8.11465 17.3098V17.3098" stroke="#EEA837" stroke-width="1.5" stroke-linecap="round" stroke-linejoin="round"/>
</svg>
