<svg width="45" height="49" viewBox="0 0 45 49" fill="none" xmlns="http://www.w3.org/2000/svg">
<path fill-rule="evenodd" clip-rule="evenodd" d="M28.7632 25.3754C28.4014 24.3516 27.7309 23.4652 26.8443 22.8383C25.9576 22.2114 24.8984 21.8748 23.8125 21.875V20.5625H21.1875V21.875C19.7951 21.875 18.4598 22.4281 17.4752 23.4127C16.4906 24.3973 15.9375 25.7326 15.9375 27.125C15.9375 28.5174 16.4906 29.8527 17.4752 30.8373C18.4598 31.8219 19.7951 32.375 21.1875 32.375V37.625C20.0456 37.625 19.0731 36.8966 18.7108 35.8754C18.6571 35.7084 18.5704 35.5538 18.4558 35.4208C18.3413 35.2879 18.2013 35.1792 18.044 35.1013C17.8868 35.0234 17.7155 34.9778 17.5403 34.9673C17.3651 34.9567 17.1896 34.9814 17.0241 35.0399C16.8587 35.0983 16.7066 35.1894 16.5769 35.3076C16.4473 35.4259 16.3426 35.569 16.2692 35.7284C16.1958 35.8878 16.1551 36.0603 16.1495 36.2357C16.144 36.4111 16.1736 36.5858 16.2368 36.7496C16.5986 37.7734 17.2691 38.6598 18.1557 39.2867C19.0424 39.9136 20.1016 40.2502 21.1875 40.25V41.5625H23.8125V40.25C25.2049 40.25 26.5402 39.6969 27.5248 38.7123C28.5094 37.7277 29.0625 36.3924 29.0625 35C29.0625 33.6076 28.5094 32.2723 27.5248 31.2877C26.5402 30.3031 25.2049 29.75 23.8125 29.75V24.5C24.3554 24.4999 24.8849 24.668 25.3282 24.9814C25.7716 25.2947 26.1068 25.7378 26.2879 26.2496C26.4038 26.5778 26.6454 26.8466 26.9594 26.9967C27.115 27.0711 27.2836 27.1141 27.4557 27.1232C27.6278 27.1324 27.8001 27.1076 27.9626 27.0502C28.1252 26.9928 28.2748 26.9039 28.403 26.7887C28.5312 26.6735 28.6354 26.5341 28.7098 26.3786C28.7841 26.2231 28.8271 26.0545 28.8363 25.8824C28.8455 25.7102 28.8206 25.538 28.7632 25.3754ZM21.1875 24.5C20.4913 24.5 19.8236 24.7766 19.3313 25.2688C18.8391 25.7611 18.5625 26.4288 18.5625 27.125C18.5625 27.8212 18.8391 28.4889 19.3313 28.9812C19.8236 29.4734 20.4913 29.75 21.1875 29.75V24.5ZM23.8125 37.625C24.5087 37.625 25.1764 37.3484 25.6687 36.8562C26.1609 36.3639 26.4375 35.6962 26.4375 35C26.4375 34.3038 26.1609 33.6361 25.6687 33.1438C25.1764 32.6516 24.5087 32.375 23.8125 32.375V37.625Z" fill="white"/>
<path fill-rule="evenodd" clip-rule="evenodd" d="M8.26329 4.31506C11.4842 2.73875 16.7683 0.875 22.5512 0.875C28.2133 0.875 33.3583 2.66131 36.5621 4.21662L36.7432 4.30456C37.7092 4.78231 38.4888 5.23381 39.0375 5.6L34.1891 12.6875C45.3663 24.1141 54 48.1211 22.5512 48.1211C-8.89765 48.1211 -0.496338 24.5499 10.778 12.6875L5.96116 5.6C6.3326 5.35719 6.80379 5.075 7.36554 4.77575C7.64379 4.62613 7.94304 4.47169 8.26329 4.31506ZM31.0732 12.5943L34.9543 6.92037C31.3449 7.18025 27.0504 8.02813 22.916 9.22513C19.9629 10.0783 16.6817 9.94831 13.6432 9.38787C12.8775 9.24611 12.1171 9.07712 11.3634 8.88125L13.8834 12.5917C19.2843 14.5145 25.671 14.5145 31.0732 12.5943ZM12.3675 14.8269C18.6872 17.2681 26.2826 17.2681 32.6023 14.8243C35.2396 17.6056 37.4462 20.7656 39.149 24.1994C40.9235 27.8193 41.8895 31.4379 41.732 34.5564C41.5798 37.5659 40.3959 40.1371 37.6922 42.0481C34.8742 44.0392 30.1348 45.4961 22.5499 45.4961C14.957 45.4961 10.1953 44.0641 7.3511 42.0954C4.62766 40.2093 3.43197 37.6722 3.26266 34.7034C3.08547 31.619 4.03047 28.0188 5.79841 24.374C7.48497 20.8985 9.83829 17.5529 12.3675 14.8269ZM10.8581 6.01475C11.9081 6.32713 13.0053 6.59881 14.1183 6.80487C16.9402 7.32462 19.77 7.40075 22.185 6.70119C24.9992 5.88101 27.8615 5.23621 30.7556 4.7705C28.3406 4.04338 25.5161 3.5 22.5499 3.5C18.0283 3.5 13.8112 4.76131 10.8581 6.01475Z" fill="white"/>
</svg>
