<svg width="37" height="37" viewBox="0 0 37 37" fill="none" xmlns="http://www.w3.org/2000/svg">
<rect width="37" height="37" rx="18.5" fill="#04BFDA"/>
<path d="M17.5568 20.2273H19.2841L20.5 21.8125L21.0739 22.517L23.0114 25.0455H21.2159L19.9205 23.358L19.4773 22.7443L17.5568 20.2273ZM23.3864 18.1818C23.3864 19.4242 23.1591 20.4924 22.7045 21.3864C22.25 22.2765 21.6269 22.9621 20.8352 23.4432C20.0473 23.9205 19.1515 24.1591 18.1477 24.1591C17.1402 24.1591 16.2405 23.9205 15.4489 23.4432C14.661 22.9621 14.0398 22.2746 13.5852 21.3807C13.1307 20.4867 12.9034 19.4205 12.9034 18.1818C12.9034 16.9394 13.1307 15.8731 13.5852 14.983C14.0398 14.089 14.661 13.4034 15.4489 12.9261C16.2405 12.4451 17.1402 12.2045 18.1477 12.2045C19.1515 12.2045 20.0473 12.4451 20.8352 12.9261C21.6269 13.4034 22.25 14.089 22.7045 14.983C23.1591 15.8731 23.3864 16.9394 23.3864 18.1818ZM21.6477 18.1818C21.6477 17.2348 21.4943 16.4375 21.1875 15.7898C20.8845 15.1383 20.4678 14.6458 19.9375 14.3125C19.411 13.9754 18.8144 13.8068 18.1477 13.8068C17.4773 13.8068 16.8788 13.9754 16.3523 14.3125C15.8258 14.6458 15.4091 15.1383 15.1023 15.7898C14.7992 16.4375 14.6477 17.2348 14.6477 18.1818C14.6477 19.1288 14.7992 19.928 15.1023 20.5795C15.4091 21.2273 15.8258 21.7197 16.3523 22.0568C16.8788 22.3902 17.4773 22.5568 18.1477 22.5568C18.8144 22.5568 19.411 22.3902 19.9375 22.0568C20.4678 21.7197 20.8845 21.2273 21.1875 20.5795C21.4943 19.928 21.6477 19.1288 21.6477 18.1818Z" fill="white"/>
</svg>
