<svg width="24" height="24" viewBox="0 0 24 24" fill="none" xmlns="http://www.w3.org/2000/svg">
<path d="M16.92 1.99958H19.92C20.1985 1.99845 20.4741 2.0555 20.7293 2.16707C20.9845 2.27864 21.2136 2.44228 21.4018 2.6475C21.5901 2.85272 21.7335 3.095 21.8227 3.35883C21.9119 3.62265 21.945 3.90221 21.92 4.17958C21.5856 7.25674 20.5341 10.2126 18.85 12.8096C17.3146 15.2258 15.2661 17.2742 12.85 18.8096C10.2412 20.4996 7.27097 21.5513 4.17997 21.8796C3.90344 21.9046 3.62474 21.8717 3.3616 21.7831C3.09846 21.6945 2.85666 21.552 2.6516 21.3648C2.44653 21.1776 2.28268 20.9498 2.1705 20.6958C2.05831 20.4418 2.00024 20.1672 1.99997 19.8896V16.8896C1.9952 16.4043 2.16705 15.9338 2.48351 15.5658C2.79996 15.1978 3.23942 14.9575 3.71997 14.8896C4.68004 14.763 5.6227 14.5281 6.52997 14.1896C6.8879 14.055 7.27689 14.0259 7.65086 14.1057C8.02482 14.1854 8.36809 14.3707 8.63998 14.6396L9.90997 15.9096C12.4135 14.486 14.4864 12.4131 15.91 9.90958L14.64 8.63958C14.3711 8.36769 14.1858 8.02442 14.1061 7.65046C14.0263 7.27649 14.0554 6.8875 14.19 6.52958C14.5285 5.62231 14.7634 4.67964 14.89 3.71958C14.9585 3.23381 15.2032 2.79018 15.5775 2.47305C15.9518 2.15591 16.4296 1.98741 16.92 1.99958Z" stroke="white" stroke-width="2" stroke-linecap="round" stroke-linejoin="round"/>
</svg>
