<svg width="19" height="16" viewBox="0 0 19 16" fill="none" xmlns="http://www.w3.org/2000/svg">
<path d="M14.1621 7.10983C15.4974 7.10983 16.5806 6.0274 16.5806 4.69212C16.5806 3.35684 15.4974 2.27441 14.1621 2.27441" stroke="white" stroke-width="1.5" stroke-linecap="round" stroke-linejoin="round"/>
<path d="M15.2744 9.7373C15.6732 9.7648 16.0696 9.82133 16.46 9.90918C17.0023 10.0154 17.6547 10.2377 17.8869 10.7242C18.0351 11.0359 18.0351 11.3988 17.8869 11.7112C17.6555 12.1978 17.0023 12.4193 16.46 12.5308" stroke="white" stroke-width="1.5" stroke-linecap="round" stroke-linejoin="round"/>
<path d="M4.74171 7.10983C3.40644 7.10983 2.32324 6.0274 2.32324 4.69212C2.32324 3.35684 3.40644 2.27441 4.74171 2.27441" stroke="white" stroke-width="1.5" stroke-linecap="round" stroke-linejoin="round"/>
<path d="M3.6297 9.7373C3.23095 9.7648 2.8345 9.82133 2.44415 9.90918C1.90179 10.0154 1.24943 10.2377 1.01797 10.7242C0.86901 11.0359 0.86901 11.3988 1.01797 11.7112C1.24866 12.1978 1.90179 12.4193 2.44415 12.5308" stroke="white" stroke-width="1.5" stroke-linecap="round" stroke-linejoin="round"/>
<path fill-rule="evenodd" clip-rule="evenodd" d="M9.44789 10.2578C12.1536 10.2578 14.4651 10.6673 14.4651 12.3058C14.4651 13.9436 12.1689 14.3683 9.44789 14.3683C6.74143 14.3683 4.43066 13.9589 4.43066 12.3203C4.43066 10.6818 6.72691 10.2578 9.44789 10.2578Z" stroke="white" stroke-width="1.5" stroke-linecap="round" stroke-linejoin="round"/>
<path fill-rule="evenodd" clip-rule="evenodd" d="M9.44763 7.92044C7.66319 7.92044 6.23242 6.48967 6.23242 4.70447C6.23242 2.92002 7.66319 1.48926 9.44763 1.48926C11.2321 1.48926 12.6628 2.92002 12.6628 4.70447C12.6628 6.48967 11.2321 7.92044 9.44763 7.92044Z" stroke="white" stroke-width="1.5" stroke-linecap="round" stroke-linejoin="round"/>
</svg>
