<svg width="64" height="65" viewBox="0 0 64 65" fill="none" xmlns="http://www.w3.org/2000/svg">
<path d="M62.6826 27.9225L56.3001 15.1725C56.1239 14.82 55.8801 14.5057 55.5825 14.2475C55.2849 13.9893 54.9394 13.7922 54.5656 13.6675C54.1919 13.5429 53.7972 13.4931 53.4042 13.5209C53.0112 13.5488 52.6275 13.6538 52.2751 13.83L45.7201 17.095L32.2501 13.535C32.0862 13.4915 31.9139 13.4915 31.7501 13.535L18.2801 17.095L11.7251 13.8175C11.3726 13.6413 10.9889 13.5363 10.5959 13.5084C10.2029 13.4806 9.80825 13.5304 9.43448 13.655C9.06072 13.7797 8.71517 13.9768 8.41757 14.235C8.11998 14.4932 7.87616 14.8075 7.70005 15.16L1.31755 27.9225C1.14139 28.2749 1.03637 28.6586 1.00849 29.0516C0.98062 29.4446 1.03044 29.8393 1.1551 30.2131C1.27977 30.5868 1.47684 30.9324 1.73506 31.23C1.99328 31.5276 2.3076 31.7714 2.66005 31.9475L9.48255 35.36L23.4201 45.315C23.5216 45.3878 23.6362 45.4404 23.7576 45.47L39.7576 49.47C39.924 49.5136 40.0989 49.5135 40.2654 49.4697C40.4318 49.4259 40.5841 49.3399 40.7076 49.22L54.5926 35.335L61.3426 31.96C61.695 31.7839 62.0093 31.5401 62.2675 31.2425C62.5258 30.9449 62.7228 30.5993 62.8475 30.2256C62.9722 29.8518 63.022 29.4571 62.9941 29.0641C62.9662 28.6711 62.8612 28.2874 62.6851 27.935L62.6826 27.9225ZM49.9326 37.16L40.6326 29.71C40.44 29.5555 40.1971 29.4777 39.9507 29.4916C39.7042 29.5054 39.4716 29.6099 39.2976 29.785C34.4251 34.695 28.9626 34.0625 25.4751 31.835C25.3467 31.7526 25.2385 31.6425 25.1584 31.5127C25.0784 31.3828 25.0285 31.2367 25.0126 31.085C24.9955 30.939 25.0116 30.791 25.0596 30.652C25.1077 30.5131 25.1864 30.3868 25.2901 30.2825L36.4051 19.5H45.3826L52.7826 34.3025L49.9326 37.16ZM3.05255 29.58C2.97261 29.3324 2.99234 29.0633 3.10755 28.83L9.50005 16.055C9.58208 15.8899 9.70815 15.7507 9.86432 15.6527C10.0205 15.5548 10.2007 15.5019 10.3851 15.5C10.5397 15.5009 10.692 15.5377 10.8301 15.6075L16.8301 18.6075L9.55255 33.16L3.55255 30.16C3.43519 30.1009 3.33063 30.0193 3.24484 29.9197C3.15904 29.8202 3.09371 29.7048 3.05255 29.58ZM39.6926 47.3925L24.4276 43.575L11.2776 34.1825L18.8626 19L32.0001 15.535L39.4301 17.5H36.0001C35.7396 17.4997 35.4894 17.6011 35.3026 17.7825L23.8776 28.865C23.5596 29.183 23.3172 29.5683 23.1682 29.9926C23.0193 30.4169 22.9676 30.8692 23.0171 31.3162C23.0665 31.7631 23.2158 32.1932 23.4539 32.5747C23.692 32.9562 24.0128 33.2792 24.3926 33.52C29.3626 36.6975 35.4251 36.02 40.0576 31.8175L48.5001 38.5825L39.6926 47.3925ZM60.9426 29.58C60.9014 29.7048 60.8361 29.8202 60.7503 29.9197C60.6645 30.0193 60.5599 30.1009 60.4426 30.16L54.4426 33.16L47.1701 18.6075L53.1701 15.6075C53.4061 15.4926 53.6779 15.4751 53.9267 15.5588C54.1756 15.6425 54.3815 15.8207 54.5001 16.055L60.8826 28.8175C61.0045 29.053 61.0278 29.3273 60.9476 29.58H60.9426ZM31.9851 54.75C31.9296 54.9649 31.8041 55.1553 31.6285 55.2911C31.4529 55.4269 31.2371 55.5004 31.0151 55.5C30.9308 55.5006 30.8468 55.4905 30.7651 55.47L20.3451 52.8625C20.223 52.8326 20.1076 52.7801 20.0051 52.7075L13.4201 48C13.2042 47.8458 13.0585 47.6123 13.0149 47.3506C12.9713 47.089 13.0334 46.8208 13.1876 46.605C13.3417 46.3892 13.5753 46.2434 13.8369 46.1998C14.0985 46.1562 14.3667 46.2183 14.5826 46.3725L21.0126 50.965L31.2626 53.5275C31.3906 53.5598 31.5109 53.6172 31.6166 53.6963C31.7223 53.7754 31.8113 53.8746 31.8785 53.9882C31.9456 54.1019 31.9896 54.2277 32.0079 54.3585C32.0262 54.4892 32.0185 54.6223 31.9851 54.75Z" fill="white"/>
</svg>
